<svg version="1.1" id="Layer_1" xmlns="http://www.w3.org/2000/svg" xmlns:xlink="http://www.w3.org/1999/xlink" x="0px" y="0px"
	 width="100%" viewBox="0 0 500 500" enable-background="new 0 0 500 500" xml:space="preserve">
<path fill="#000000" opacity="1.000000" stroke="none" 
	d="
M322.000000,501.000000 
	C214.666687,501.000000 107.833382,501.000000 1.000057,501.000000 
	C1.000038,334.333405 1.000038,167.666794 1.000019,1.000147 
	C167.666565,1.000098 334.333130,1.000098 500.999756,1.000049 
	C500.999847,167.666519 500.999847,334.333038 500.999939,500.999786 
	C441.500000,501.000000 382.000000,501.000000 322.000000,501.000000 
M280.653656,194.985535 
	C280.812561,194.697113 280.971497,194.408707 281.687317,193.809845 
	C282.816071,192.559143 283.944824,191.308441 285.026825,190.011887 
	C285.026825,190.011887 285.006897,190.074249 285.519806,189.908661 
	C285.706879,189.613754 285.893951,189.318848 286.697235,188.739594 
	C291.484711,186.156601 296.272186,183.573624 301.983154,181.014053 
	C311.367157,180.958557 320.751129,180.903061 331.052063,180.931839 
	C341.651398,180.898941 352.250702,180.866058 363.697235,181.024719 
	C366.678925,180.365967 369.789856,180.049530 372.617340,178.982269 
	C380.161804,176.134567 384.047241,165.263794 379.950989,158.468491 
	C379.950989,158.468491 379.830109,158.093124 380.010986,157.408371 
	C379.351044,156.562714 378.691101,155.717056 377.735504,154.291702 
	C376.206329,153.173218 374.677155,152.054733 372.954132,150.423508 
	C372.634583,150.326645 372.315002,150.229782 371.343170,149.852341 
	C369.250610,148.951492 367.158051,148.050659 364.330170,146.816391 
	C363.743744,146.562378 363.159088,146.092300 362.570648,146.087555 
	C356.226013,146.036362 349.877716,145.935547 343.536682,146.096497 
	C337.689697,146.244888 331.850372,146.695816 325.174194,147.080139 
	C323.781464,147.059494 322.388763,147.038864 320.552704,146.274323 
	C311.373444,146.576736 302.194153,146.879166 292.490143,147.071838 
	C292.315338,147.108963 292.140533,147.146072 291.184906,147.080002 
	C269.819916,151.209091 259.522949,168.318436 247.471283,184.126877 
	C247.300919,184.418121 247.130569,184.709351 246.586349,185.264771 
	C246.354721,185.465469 246.153687,185.693176 245.335678,186.174255 
	C239.460114,193.409668 232.292099,198.435471 221.987869,199.404602 
	C220.992233,199.429932 219.996597,199.455246 218.239365,199.240967 
	C217.445267,199.220901 216.651154,199.200821 214.948837,199.053116 
	C191.419525,199.039871 167.890182,199.007980 144.361008,199.057510 
	C142.872498,199.060654 141.385315,199.698044 139.101379,200.019623 
	C139.080933,202.026352 139.060471,204.033096 139.268646,206.580383 
	C139.827744,206.713043 140.386841,206.845703 141.348877,207.765823 
	C161.894211,207.866669 182.439529,207.967514 202.949585,208.765808 
	C203.588455,215.135376 198.773041,212.458496 195.842667,212.561264 
	C195.589050,212.712112 195.335434,212.862961 194.210663,213.092346 
	C192.461685,213.087784 190.712708,213.083206 188.607727,212.378784 
	C186.420059,212.614929 184.232376,212.851059 181.106552,213.122269 
	C176.376190,213.090683 171.645844,213.059097 166.846695,212.571411 
	C166.592224,212.723282 166.337753,212.875168 165.192123,213.105682 
	C163.106674,213.074692 161.021225,213.043701 158.855789,212.552994 
	C158.596802,212.707092 158.337814,212.861206 157.170197,213.118423 
	C154.890060,213.118423 152.609924,213.118423 149.073990,213.118423 
	C150.220016,215.853500 151.085281,217.918549 152.346542,220.775253 
	C166.211014,220.796844 180.075485,220.818436 194.230606,221.523605 
	C194.471283,222.684967 194.711960,223.846344 194.113419,225.048859 
	C192.194168,225.356689 190.276321,225.921097 188.355469,225.931488 
	C173.870316,226.009903 159.384384,225.946320 144.899277,226.027969 
	C143.228683,226.037369 141.561600,226.666000 139.313095,227.383652 
	C137.839554,229.809769 137.365540,231.952972 141.307999,233.749527 
	C141.798782,233.824081 142.289536,233.963531 142.780365,233.963898 
	C172.902191,233.987183 203.024033,234.009018 233.145782,233.967957 
	C234.131439,233.966614 235.116211,233.314194 236.509003,232.946274 
	C236.509003,232.946274 236.902115,232.836716 237.730759,233.004791 
	C243.855499,232.318481 249.309708,230.326675 253.792068,224.994354 
	C257.231354,221.362564 260.670624,217.730774 264.698029,213.800339 
	C265.857269,212.257034 267.016479,210.713715 268.780121,208.894547 
	C269.896881,207.309418 271.013641,205.724304 272.807404,204.062897 
	C273.252380,203.423355 273.697327,202.783829 274.619171,201.966797 
	C274.786377,201.682251 274.953613,201.397690 275.699829,200.810440 
	C276.512665,199.587372 277.325531,198.364319 278.610352,196.978683 
	C278.903687,196.784897 279.090454,196.516876 279.644226,196.002350 
	C279.823181,195.726929 280.002106,195.451508 280.653656,194.985535 
M144.188675,167.452728 
	C144.338028,167.737503 144.567535,167.836380 145.807114,167.970444 
	C158.184402,167.993698 170.561691,168.016937 183.243011,168.679672 
	C183.085800,170.131622 182.928604,171.583557 181.880905,173.017487 
	C172.002426,173.019821 162.123520,172.978500 152.245880,173.070740 
	C150.732941,173.084869 149.225723,173.715271 147.118256,174.380035 
	C146.140533,176.478302 145.028763,178.595886 148.369278,180.893036 
	C176.565445,180.877625 204.761627,180.862213 233.733231,180.962616 
	C235.834351,180.379013 237.935471,179.795395 240.751389,179.094131 
	C243.201767,175.739594 245.652145,172.385040 248.791489,168.682388 
	C251.053787,163.508453 249.670914,157.812851 244.995789,152.997025 
	C244.995789,152.997025 244.930527,153.005356 244.687424,152.353531 
	C241.912048,149.059204 238.380508,147.583694 233.898331,147.483627 
	C233.679092,147.132385 233.388855,147.057907 232.099518,147.159653 
	C227.730118,147.073441 223.360733,146.987228 218.613525,146.121490 
	C208.422989,146.122437 198.232437,146.123383 187.417786,146.086731 
	C186.948410,146.398254 186.479034,146.709763 185.491104,147.058914 
	C185.318832,147.040009 185.146561,147.021118 184.863892,146.546204 
	C184.584290,146.697876 184.304703,146.849548 183.107422,147.073059 
	C179.732300,147.061966 176.357178,147.050888 172.673584,146.408813 
	C170.817398,146.952347 168.961227,147.495865 167.034164,148.032074 
	C167.034164,148.032074 167.035019,148.103333 166.330566,148.347519 
	C164.020294,152.986359 164.816376,154.693588 169.682648,154.910812 
	C174.417694,155.122177 179.166107,155.034302 183.957672,155.084167 
	C183.957672,155.084167 183.958969,155.034744 184.066833,155.555649 
	C184.365173,155.720657 184.663513,155.885666 184.968842,156.007797 
	C184.968842,156.007797 184.937347,156.042114 184.995529,156.791168 
	C184.341568,157.592606 183.687622,158.394058 182.361084,159.021698 
	C181.581726,159.339676 180.802368,159.657654 179.094452,160.101425 
	C174.377625,160.067871 169.660782,160.034317 164.673752,159.404541 
	C163.444077,159.699402 162.214401,159.994263 160.054276,160.208115 
	C155.420212,160.205704 150.776978,160.379272 146.155304,160.138794 
	C143.094315,159.979507 141.764450,160.975647 142.090103,164.782242 
	C142.701981,165.509216 143.313858,166.236206 143.974823,167.097458 
	C143.974823,167.097458 144.111282,167.054825 144.188675,167.452728 
M287.305847,202.992920 
	C286.537659,203.659836 285.769501,204.326752 284.501434,205.091553 
	C284.333618,205.117462 284.165833,205.143372 283.349640,204.988708 
	C282.290863,205.995041 281.232086,207.001358 279.655029,208.152908 
	C279.429535,208.420853 279.204041,208.688812 278.243073,208.943359 
	C274.672119,212.906387 271.100647,216.868942 267.530334,220.832550 
	C262.967621,225.897842 258.405884,230.964005 253.314423,236.422623 
	C249.396347,240.046738 245.567688,243.775803 241.508606,247.234436 
	C240.200089,248.349365 238.257614,248.697418 236.655487,249.497101 
	C235.094742,250.276123 233.598373,251.184113 231.311401,252.236328 
	C230.534195,252.323364 229.757004,252.410400 228.157928,252.330688 
	C226.764328,252.372086 225.370743,252.413498 223.229752,252.198898 
	C222.440002,252.198715 221.650269,252.198517 219.956345,252.068619 
	C200.981628,252.097748 182.006912,252.126862 162.494461,252.083221 
	C162.277390,252.362717 162.060318,252.642197 161.224274,253.182983 
	C158.455154,256.720306 158.866745,258.341705 163.237946,260.761902 
	C181.483887,260.842957 199.729813,260.923981 218.131699,261.590240 
	C218.411606,262.693054 218.691528,263.795837 218.311646,264.997589 
	C217.872101,265.054993 217.432541,265.112427 216.067169,265.021118 
	C193.405487,265.062256 170.743820,265.103424 147.358887,265.205872 
	C146.286514,267.142822 145.214142,269.079773 144.146652,271.635468 
	C144.728027,271.787537 145.309402,271.939606 146.290680,272.800598 
	C147.462585,273.206207 148.631927,273.952728 149.806793,273.961456 
	C156.853500,274.014038 163.901459,273.897003 171.886566,274.014648 
	C184.932419,273.963593 197.978271,273.912506 211.072906,274.631653 
	C210.712448,276.079071 210.351990,277.526459 209.107056,279.052216 
	C206.738281,279.036896 204.369492,279.021606 201.757965,278.391144 
	C200.841858,278.602356 199.925766,278.813568 198.072220,279.073364 
	C188.676407,279.071472 179.279236,279.156036 169.885757,279.007233 
	C167.516541,278.969727 165.236023,279.278564 165.406403,281.811310 
	C165.504089,283.263794 167.709839,284.574463 169.272766,286.793518 
	C191.571411,286.864075 213.870056,286.943359 236.168732,286.960175 
	C236.792603,286.960663 237.416962,286.293213 238.726379,285.963196 
	C239.500793,285.665497 240.275208,285.367798 241.892090,285.013550 
	C253.536636,285.109558 260.665405,277.351318 267.911133,269.907684 
	C269.196564,268.587158 269.865692,266.666718 271.118225,264.399200 
	C277.168732,257.578064 283.219208,250.756912 289.855377,243.698929 
	C294.606567,240.503586 299.357758,237.308228 304.650482,233.980194 
	C304.829254,233.929428 305.008026,233.878677 306.089447,233.942505 
	C312.545715,233.960861 319.003784,234.077850 325.457642,233.962296 
	C329.641754,233.887390 333.819763,233.472946 338.825226,233.015091 
	C341.597290,232.324341 344.900757,232.365341 347.044159,230.808868 
	C354.143341,225.653564 356.073303,216.494949 352.621033,208.691330 
	C351.076508,207.137238 349.532013,205.583160 348.002563,203.998413 
	C348.002563,203.998413 347.971741,204.013000 347.732391,203.358521 
	C345.076630,202.167877 342.463196,200.067825 339.757843,199.941772 
	C327.120514,199.353012 314.457947,199.179596 301.804108,199.166580 
	C298.867279,199.163559 295.929199,200.371140 292.282898,201.056534 
	C290.846313,201.688263 289.409698,202.319977 287.984741,202.990295 
	C287.984741,202.990295 287.953003,202.964661 287.305847,202.992920 
M139.846863,173.552612 
	C139.580902,173.704300 139.314957,173.855988 138.508911,174.075714 
	C138.334229,174.124878 138.159561,174.174026 137.126328,174.062622 
	C135.527344,174.062622 133.928360,174.062622 130.914551,174.062622 
	C132.257843,176.989792 132.696014,180.000458 134.215561,180.716553 
	C135.971024,181.543839 138.679382,180.349182 140.973984,180.032455 
	C140.650711,178.045776 140.327438,176.059082 139.998108,174.002716 
	C139.998108,174.002716 139.928284,174.006821 139.846863,173.552612 
M140.553131,241.213333 
	C140.256973,241.344650 140.163788,241.562775 140.080917,242.561127 
	C140.719742,243.705170 141.358582,244.849228 142.350861,246.800690 
	C152.078552,246.859070 161.806305,246.949249 171.533890,246.934280 
	C172.707718,246.932480 173.880661,246.362244 175.695328,245.726883 
	C175.151352,244.116272 174.607376,242.505661 173.998901,240.483032 
	C173.998901,240.483032 173.904907,240.076721 173.695206,239.209930 
	C163.438705,239.192276 153.182220,239.174622 142.379929,239.208969 
	C141.991089,239.798218 141.602249,240.387466 140.996460,241.015778 
	C140.996460,241.015778 140.946045,241.230362 140.553131,241.213333 
M173.566086,186.201202 
	C166.172653,186.141983 158.778763,186.017792 151.386124,186.070175 
	C149.586105,186.082916 147.790192,186.675797 145.329666,187.374176 
	C145.059631,189.256271 144.789597,191.138351 144.482132,193.281311 
	C145.467651,193.539383 146.362061,193.972610 147.258774,193.977448 
	C155.682510,194.022903 164.106903,194.023666 172.530212,193.943497 
	C173.354675,193.935654 174.173141,193.299835 175.607208,192.708923 
	C178.119980,189.924774 175.949936,188.472260 173.566086,186.201202 
M130.865219,199.545364 
	C130.593842,199.703857 130.322449,199.862350 129.199432,200.071259 
	C127.508911,200.122757 125.818398,200.174255 123.288330,200.002350 
	C123.203072,202.351074 123.117813,204.699783 123.032547,207.048492 
	C126.307785,206.853622 130.181046,207.661331 132.682541,206.169266 
	C134.978775,204.799637 133.601562,201.580353 130.999939,200.000717 
	C130.999939,200.000717 131.009506,199.996078 130.865219,199.545364 
M132.366638,227.671066 
	C132.366638,227.671066 132.377151,227.603897 132.119537,226.808258 
	C128.951996,226.398880 125.784470,225.989502 122.717621,225.593140 
	C120.623772,232.743027 122.409531,234.621078 130.276215,233.917435 
	C131.533340,233.804993 133.618225,232.899475 133.723801,232.138962 
	C133.918610,230.735641 132.929764,229.167999 132.366638,227.671066 
M143.942932,213.424118 
	C143.615692,213.324081 143.288452,213.224030 142.036697,213.008224 
	C136.030579,213.390808 130.024475,213.773392 123.266541,214.068298 
	C122.543037,215.327698 120.931427,217.318649 121.257011,217.713928 
	C122.384514,219.082779 124.125145,220.650574 125.742165,220.780884 
	C130.684174,221.179123 135.678314,221.010666 140.650238,220.935852 
	C146.065491,220.854370 147.026840,218.809479 144.015518,213.982712 
	C144.015518,213.982712 144.088287,213.966843 143.942932,213.424118 
M150.044220,253.055984 
	C145.372894,253.097748 140.701584,253.139511 135.286057,253.020798 
	C132.112671,256.732117 132.874542,260.144775 137.614227,260.663757 
	C142.404984,261.188354 147.413742,260.745972 152.200531,259.958405 
	C156.013687,259.331085 156.225250,256.086639 152.494095,253.083069 
	C152.494095,253.083069 152.018631,252.989639 151.901993,252.486282 
	C151.591385,252.652496 151.280777,252.818710 150.044220,253.055984 
M183.032166,342.506012 
	C182.856979,342.341431 182.681793,342.176880 182.506607,342.012299 
	C182.640533,342.359406 182.774475,342.706512 182.935730,343.823792 
	C184.153839,349.579071 186.428406,351.409149 192.354507,351.443176 
	C192.989594,351.446808 193.700684,351.439026 194.247009,351.703766 
	C203.277084,356.080292 208.577713,354.109833 212.325409,344.937195 
	C206.826447,342.867645 206.634171,342.888550 201.944916,346.067108 
	C197.180130,349.296814 192.907669,347.554138 190.661835,340.679321 
	C195.650009,340.780365 200.359787,340.889465 205.070114,340.964752 
	C207.063202,340.996613 209.101105,341.200134 211.033600,340.852692 
	C212.077576,340.665039 213.488724,339.660889 213.800461,338.716797 
	C216.049789,331.904510 209.261154,322.738434 201.992142,322.613556 
	C199.486008,322.570526 196.840729,323.243805 194.496460,322.650940 
	C189.087021,321.282898 186.830154,325.303253 184.545258,328.422882 
	C182.475739,331.248444 180.874695,334.899353 184.590347,338.219788 
	C185.597809,339.120117 186.065247,340.624695 187.087723,342.378998 
	C185.293549,342.603638 184.210938,342.739166 183.032166,342.506012 
M320.355194,322.019318 
	C314.695160,320.644897 309.678406,322.506683 306.818420,327.070862 
	C303.802612,331.883728 302.130493,337.168945 304.491760,343.568054 
	C306.903442,350.103882 311.689850,352.028046 317.282501,353.703186 
	C323.810852,355.658630 330.039001,353.015106 334.323944,346.477844 
	C336.997437,342.399048 337.071472,331.458191 333.910278,328.713013 
	C330.255646,325.539307 327.070923,320.996216 320.355194,322.019318 
M143.532303,338.775848 
	C146.896500,341.927460 153.328812,341.531189 153.741119,337.975067 
	C154.348694,332.734619 152.401382,327.834595 148.135223,324.831909 
	C144.805450,322.488312 140.988708,318.671051 136.229797,322.870239 
	C135.838379,323.215607 135.019073,323.237183 134.426285,323.168915 
	C126.580727,322.265106 121.219162,328.398438 123.314262,335.817108 
	C123.656761,337.029907 123.789070,338.456635 123.507202,339.665253 
	C122.076347,345.800568 122.979805,348.382050 128.649094,351.237610 
	C131.028305,352.436005 133.866684,352.722809 136.312698,353.375092 
	C141.198837,345.650757 129.056152,347.520966 130.264313,343.056366 
	C133.622284,340.530487 136.235474,338.564850 138.848679,336.599213 
	C138.608978,336.056946 138.369278,335.514679 138.129593,334.972443 
	C136.413910,334.602966 134.530853,334.541168 133.051956,333.736511 
	C132.292221,333.323181 132.253555,331.584503 131.889053,330.444733 
	C134.920883,330.064178 138.115768,328.938873 140.929382,329.554932 
	C142.932205,329.993500 144.421707,332.776337 146.140305,334.512970 
	C145.753967,334.917847 145.367630,335.322754 144.981293,335.727631 
	C143.681274,335.255890 142.381256,334.784180 140.497818,334.100739 
	C140.497818,336.420959 140.497818,338.242981 140.497818,340.194916 
	C141.456223,339.530334 142.249863,338.979980 143.532303,338.775848 
M135.930313,243.447983 
	C134.337891,241.659714 133.027527,239.233002 131.034134,238.352325 
	C130.036469,237.911591 127.053452,239.956985 126.353661,241.504395 
	C125.822891,242.678070 127.025269,245.749527 128.264267,246.374207 
	C130.731491,247.618103 133.766800,247.806198 135.612717,244.674454 
	C135.696701,244.531967 135.771667,244.384155 135.930313,243.447983 
M147.994263,351.279663 
	C149.513367,349.222626 151.032471,347.165558 152.567673,345.086731 
	C147.450760,342.177734 143.412476,342.911926 142.575607,346.796783 
	C143.255829,347.915924 143.979935,349.107300 144.737762,350.354126 
	C143.324112,351.162842 142.219208,351.794952 141.114304,352.427063 
	C141.312988,352.917908 141.511688,353.408752 141.710373,353.899628 
	C143.629730,353.171906 145.549103,352.444183 147.994263,351.279663 
M127.087761,193.322083 
	C129.925568,193.255585 132.949692,193.782074 135.551559,192.964600 
	C138.458954,192.051132 138.451019,189.022583 135.958191,187.506821 
	C131.745087,184.945099 127.138817,187.470505 127.087761,193.322083 
M292.119934,326.502441 
	C292.119934,335.253571 292.119934,344.004730 292.119934,352.755859 
	C292.305969,352.751556 292.492004,352.747223 292.678040,352.742920 
	C292.678040,338.524384 292.678040,324.305817 292.678040,310.087280 
	C292.493469,310.085785 292.308868,310.084259 292.124298,310.082764 
	C292.124298,315.223236 292.124298,320.363678 292.119934,326.502441 
M300.890900,335.498596 
	C300.890900,327.398499 300.890900,319.298370 300.890900,311.198273 
	C300.700073,311.199921 300.509247,311.201538 300.318420,311.203186 
	C300.318420,325.080353 300.318420,338.957489 300.318420,352.834656 
	C300.511017,352.835480 300.703583,352.836304 300.896179,352.837097 
	C300.896179,347.390625 300.896179,341.944122 300.890900,335.498596 
M217.842590,328.817322 
	C217.842590,327.152802 217.842590,325.488281 217.842590,323.823730 
	C217.692062,323.828278 217.541519,323.832794 217.390991,323.837311 
	C217.390991,333.269104 217.390991,342.700897 217.390991,352.132690 
	C217.541946,352.131805 217.692886,352.130951 217.843842,352.130066 
	C217.843842,344.664673 217.843842,337.199280 217.842590,328.817322 
M140.432877,347.859802 
	C140.175385,347.839386 139.917877,347.818970 139.660385,347.798553 
	C139.655823,347.944458 139.651260,348.090332 139.646698,348.236237 
	C139.905273,348.225525 140.163834,348.214783 140.432877,347.859802 
z"/>
<path fill="#4B88CC" opacity="1.000000" stroke="none" 
	d="
M166.915482,213.027496 
	C171.645844,213.059097 176.376190,213.090683 181.865646,213.329971 
	C184.737732,213.384659 186.850739,213.231659 188.963730,213.078644 
	C190.712708,213.083206 192.461685,213.087784 194.852036,213.060486 
	C195.493408,213.028610 195.905716,213.012695 195.905716,213.012695 
	C198.773041,212.458496 203.588455,215.135376 202.787292,208.225311 
	C202.408768,207.409973 202.192520,207.135132 201.624802,206.648712 
	C195.173737,206.289658 189.074509,206.036545 182.974472,206.015732 
	C168.329865,205.965729 153.684860,206.024780 139.040024,206.039825 
	C139.060471,204.033096 139.080933,202.026352 139.774597,200.006226 
	C140.629852,200.017548 140.811905,200.042267 141.337494,200.296722 
	C143.490326,200.681656 145.299316,200.967773 147.108963,200.971909 
	C166.743271,201.016800 186.377701,201.017410 205.929108,201.339218 
	C203.155518,205.114700 205.285110,207.146469 208.031296,209.325989 
	C208.031570,210.099411 208.033035,210.541229 207.772705,211.208389 
	C206.359451,214.226288 205.207977,217.018829 203.731110,219.955719 
	C201.584045,221.751450 199.777603,223.406113 202.333679,226.161865 
	C202.719849,227.256027 203.158447,228.171738 203.062744,229.027679 
	C202.948471,230.049805 202.376816,231.020767 201.534424,232.012878 
	C182.600769,232.011658 164.135956,231.999374 145.671188,232.022507 
	C142.380585,232.026627 139.275894,231.994919 141.413010,227.144379 
	C157.488876,227.051361 173.094833,227.090057 188.697876,226.895538 
	C190.790298,226.869461 192.868073,225.665955 194.952637,225.007690 
	C194.711960,223.846344 194.471283,222.684967 194.026031,221.089966 
	C193.821457,220.656342 193.967438,220.492554 193.700119,220.149445 
	C192.333374,219.531174 191.235138,219.022491 190.134338,219.016876 
	C179.002426,218.960175 167.869858,218.954361 156.738159,219.031815 
	C155.484833,219.040543 154.235687,219.650375 152.726151,220.011353 
	C152.295319,220.022034 152.122925,220.002808 151.950546,219.983582 
	C151.085281,217.918549 150.220016,215.853500 149.073990,213.118423 
	C152.609924,213.118423 154.890060,213.118423 157.838638,213.072784 
	C158.507080,213.027130 158.935776,213.012726 158.935776,213.012726 
	C161.021225,213.043701 163.106674,213.074692 165.845673,213.072861 
	C166.499237,213.040039 166.915482,213.027496 166.915482,213.027496 
z"/>
<path fill="#7C50D3" opacity="1.000000" stroke="none" 
	d="
M234.085052,147.945602 
	C238.380508,147.583694 241.912048,149.059204 244.432251,152.682007 
	C238.694397,151.493088 233.405777,148.014801 225.833466,151.724045 
	C229.244308,153.253677 231.461090,154.247818 235.023682,155.845490 
	C230.271957,157.968903 225.604919,158.655365 223.359909,161.355545 
	C218.991211,166.610001 213.608566,169.659790 207.624069,172.180679 
	C204.598892,173.455002 202.576553,175.391846 202.529984,179.006439 
	C191.379623,179.005753 180.697647,178.995346 170.008911,178.590515 
	C169.972046,177.144211 169.941925,176.092346 170.353714,174.997925 
	C174.787552,174.315414 178.779465,173.675461 182.771393,173.035507 
	C182.928604,171.583557 183.085800,170.131622 183.096329,168.103149 
	C182.947861,167.355194 182.946091,167.183746 182.661255,166.764465 
	C180.596695,166.334137 178.815155,166.151627 177.235779,165.725220 
	C178.297760,164.034927 179.157578,162.588562 180.344971,161.090912 
	C181.459579,160.424911 182.246628,159.810211 183.033676,159.195511 
	C183.687622,158.394058 184.341568,157.592606 185.188202,156.646759 
	C185.830994,157.445618 186.281113,158.388916 186.712936,159.293839 
	C188.638535,158.100952 190.321899,157.058151 192.000534,156.455872 
	C191.671188,159.133530 192.369873,160.200211 194.894882,160.081055 
	C198.860352,159.893951 202.864746,160.286041 206.805191,159.920837 
	C208.716782,159.743668 210.520706,158.404907 212.373383,157.592026 
	C212.271545,156.791550 212.169708,155.991089 212.067871,155.190613 
	C208.715515,154.745636 205.363159,154.300659 201.944366,153.531235 
	C201.930344,151.490463 201.982773,149.774139 202.497803,148.050034 
	C207.966614,147.742859 212.972809,147.443451 218.230515,147.076721 
	C218.651779,146.973267 218.821548,146.937134 218.991333,146.901016 
	C223.360733,146.987228 227.730118,147.073441 232.708496,147.368805 
	C233.536606,147.777145 233.792480,147.899704 234.085052,147.945602 
z"/>
<path fill="#C453CD" opacity="1.000000" stroke="none" 
	d="
M223.977142,252.454895 
	C225.370743,252.413498 226.764328,252.372086 228.594864,252.754791 
	C230.903320,255.255905 232.406647,258.446167 234.712845,259.208923 
	C242.826736,261.892487 251.296387,263.484131 259.467987,266.016266 
	C263.603668,267.297791 267.264130,268.098389 270.819397,265.023285 
	C269.865692,266.666718 269.196564,268.587158 267.911133,269.907684 
	C260.665405,277.351318 253.536636,285.109558 241.353012,284.761841 
	C240.813934,283.139587 240.813934,281.769104 240.813934,280.888275 
	C237.066345,278.728302 233.455460,276.774170 229.979843,274.603455 
	C227.234009,272.888550 224.540634,271.045319 222.048340,268.987366 
	C220.769363,267.931244 219.981339,266.280609 218.971436,264.898651 
	C218.691528,263.795837 218.411606,262.693054 217.986237,261.104919 
	C217.840759,260.619598 217.927689,260.220154 217.636398,259.922119 
	C209.227188,259.351746 201.109283,259.079407 192.993347,258.406921 
	C192.981201,256.672638 192.967041,255.338516 193.426331,253.993469 
	C202.308243,253.971161 210.718140,254.037231 219.123932,253.881165 
	C220.749939,253.850952 222.359833,252.952713 223.977142,252.454895 
z"/>
<path fill="#3F77C3" opacity="1.000000" stroke="none" 
	d="
M301.059662,180.990631 
	C296.272186,183.573624 291.484711,186.156601 286.181793,189.025513 
	C285.446533,189.565689 285.226715,189.819962 285.006897,190.074249 
	C285.006897,190.074249 285.026825,190.011887 284.677734,190.031769 
	C283.166504,190.442017 282.004333,190.832367 280.547058,191.194870 
	C279.855103,191.138657 279.458282,191.110306 279.056335,190.676117 
	C279.797546,188.825989 280.257904,187.103348 281.342926,185.988846 
	C284.789368,182.448853 288.468689,179.135605 293.082916,174.763550 
	C283.712677,173.393768 276.365509,174.090942 268.803497,176.930420 
	C264.472900,178.619476 260.529846,180.210022 256.239563,181.815125 
	C253.247223,182.533005 250.602127,183.236298 247.957016,183.939590 
	C259.522949,168.318436 269.819916,151.209091 291.457825,147.451645 
	C287.916992,149.540894 284.103271,151.258484 280.556305,152.855957 
	C282.539215,157.029938 284.379303,160.905823 286.225037,164.779037 
	C286.294800,164.925385 286.409607,165.152328 286.520142,165.162613 
	C293.332275,165.798370 297.513916,171.433273 303.319275,173.968460 
	C303.745331,174.154541 304.315613,173.980179 304.791351,174.091232 
	C305.243805,174.196854 305.660156,174.456955 306.087341,174.646896 
	C305.894989,175.919418 305.713501,177.120056 305.533813,178.308914 
	C308.236572,178.886032 310.610077,179.392853 312.529053,179.922028 
	C308.402893,180.293137 304.731293,180.641891 301.059662,180.990631 
z"/>
<path fill="#3DC0D3" opacity="1.000000" stroke="none" 
	d="
M365.065491,147.149811 
	C367.158051,148.050659 369.250610,148.951492 371.838379,150.159363 
	C372.562134,150.697464 372.833588,150.854080 373.147980,150.936249 
	C374.677155,152.054733 376.206329,153.173218 377.892029,154.921310 
	C378.642395,156.398331 379.236237,157.245728 379.830109,158.093124 
	C379.830109,158.093124 379.950989,158.468491 379.984924,159.112000 
	C381.585846,170.381058 372.417419,180.872208 360.855469,179.103439 
	C357.635803,178.610886 354.277863,179.022293 351.047302,178.662323 
	C352.973816,173.299286 355.010986,168.348648 356.633911,163.265762 
	C357.619629,160.178589 356.525238,157.742218 352.514160,157.018463 
	C346.379211,156.993973 340.710114,156.974686 334.965210,156.620514 
	C334.272797,153.546021 333.656219,150.806412 333.504272,148.052612 
	C339.097260,148.028900 344.228790,148.127457 349.353241,147.979828 
	C354.594269,147.828842 359.828369,147.436493 365.065491,147.149811 
z"/>
<path fill="#060606" opacity="1.000000" stroke="none" 
	d="
M320.737823,322.046906 
	C327.070923,320.996216 330.255646,325.539307 333.910278,328.713013 
	C337.071472,331.458191 336.997437,342.399048 334.323944,346.477844 
	C330.039001,353.015106 323.810852,355.658630 317.282501,353.703186 
	C311.689850,352.028046 306.903442,350.103882 304.491760,343.568054 
	C302.130493,337.168945 303.802612,331.883728 306.818420,327.070862 
	C309.678406,322.506683 314.695160,320.644897 320.737823,322.046906 
z"/>
<path fill="#864CDD" opacity="1.000000" stroke="none" 
	d="
M202.998383,178.996735 
	C202.576553,175.391846 204.598892,173.455002 207.624069,172.180679 
	C213.608566,169.659790 218.991211,166.610001 223.359909,161.355545 
	C225.604919,158.655365 230.271957,157.968903 235.023682,155.845490 
	C231.461090,154.247818 229.244308,153.253677 225.833466,151.724045 
	C233.405777,148.014801 238.694397,151.493088 244.553802,153.007904 
	C244.930527,153.005356 244.995789,152.997025 244.992523,153.420746 
	C246.027008,158.906479 247.064758,163.968491 248.102524,169.030502 
	C245.652145,172.385040 243.201767,175.739594 240.110840,178.893478 
	C227.313004,178.794128 215.155685,178.895432 202.998383,178.996735 
z"/>
<path fill="#060606" opacity="1.000000" stroke="none" 
	d="
M183.128311,342.874695 
	C184.210938,342.739166 185.293549,342.603638 187.087723,342.378998 
	C186.065247,340.624695 185.597809,339.120117 184.590347,338.219788 
	C180.874695,334.899353 182.475739,331.248444 184.545258,328.422882 
	C186.830154,325.303253 189.087021,321.282898 194.496460,322.650940 
	C196.840729,323.243805 199.486008,322.570526 201.992142,322.613556 
	C209.261154,322.738434 216.049789,331.904510 213.800461,338.716797 
	C213.488724,339.660889 212.077576,340.665039 211.033600,340.852692 
	C209.101105,341.200134 207.063202,340.996613 205.070114,340.964752 
	C200.359787,340.889465 195.650009,340.780365 190.661835,340.679321 
	C192.907669,347.554138 197.180130,349.296814 201.944916,346.067108 
	C206.634171,342.888550 206.826447,342.867645 212.325409,344.937195 
	C208.577713,354.109833 203.277084,356.080292 194.247009,351.703766 
	C193.700684,351.439026 192.989594,351.446808 192.354507,351.443176 
	C186.428406,351.409149 184.153839,349.579071 182.978531,343.395813 
	C183.021332,342.967804 183.128311,342.874695 183.128311,342.874695 
z"/>
<path fill="#864CDD" opacity="1.000000" stroke="none" 
	d="
M352.108429,209.008179 
	C356.073303,216.494949 354.143341,225.653564 347.044159,230.808868 
	C344.900757,232.365341 341.597290,232.324341 337.948303,233.070251 
	C331.026581,233.045349 324.981812,232.965256 318.874756,232.491898 
	C316.567596,222.725128 317.520294,221.644730 326.355469,218.562744 
	C334.062744,215.874191 341.519348,212.325485 345.369629,203.989334 
	C346.484833,204.003021 347.228302,204.008011 347.971741,204.013000 
	C347.971741,204.013000 348.002563,203.998413 348.048889,204.361435 
	C349.432953,206.152359 350.770691,207.580261 352.108429,209.008179 
z"/>
<path fill="#B149D9" opacity="1.000000" stroke="none" 
	d="
M270.968811,264.711243 
	C267.264130,268.098389 263.603668,267.297791 259.467987,266.016266 
	C251.296387,263.484131 242.826736,261.892487 234.712845,259.208923 
	C232.406647,258.446167 230.903320,255.255905 229.005798,252.838165 
	C229.757004,252.410400 230.534195,252.323364 232.067902,252.305374 
	C240.888947,252.268997 248.953491,252.163574 257.462524,252.111938 
	C266.108765,252.046219 273.793396,250.047302 281.227875,245.853973 
	C284.145538,245.219254 286.707642,244.577515 289.269714,243.935760 
	C283.219208,250.756912 277.168732,257.578064 270.968811,264.711243 
z"/>
<path fill="#6146BC" opacity="1.000000" stroke="none" 
	d="
M305.186798,233.827911 
	C305.008026,233.878677 304.829254,233.929428 303.963531,234.048615 
	C301.441101,233.958542 299.605621,233.800034 296.914551,233.567642 
	C300.013214,231.303391 302.168274,229.728683 304.323303,228.153961 
	C304.187012,227.795517 304.050751,227.437057 303.914459,227.078613 
	C300.576416,227.078613 297.238342,227.078613 293.443542,227.074005 
	C283.842285,226.446899 274.984314,227.459045 266.328979,231.734711 
	C261.927429,233.203522 257.885559,234.616638 253.843735,236.029785 
	C258.405884,230.964005 262.967621,225.897842 267.530334,220.832550 
	C271.100647,216.868942 274.672119,212.906387 278.606567,209.313721 
	C278.152679,211.551605 277.335297,213.419113 276.183380,216.050949 
	C282.713623,217.400925 288.877899,218.675247 295.504669,219.957703 
	C299.765259,219.983658 303.581207,219.799149 307.351288,220.132965 
	C308.609863,220.244385 310.070312,221.451187 310.873993,222.564667 
	C312.205963,224.410065 313.080811,226.585449 314.372467,229.049561 
	C314.048035,229.910812 313.477600,231.425125 312.497498,232.980804 
	C309.787537,233.290756 307.487152,233.559326 305.186798,233.827911 
z"/>
<path fill="#060606" opacity="1.000000" stroke="none" 
	d="
M143.287903,338.602753 
	C142.249863,338.979980 141.456223,339.530334 140.497818,340.194916 
	C140.497818,338.242981 140.497818,336.420959 140.497818,334.100739 
	C142.381256,334.784180 143.681274,335.255890 144.981293,335.727631 
	C145.367630,335.322754 145.753967,334.917847 146.140305,334.512970 
	C144.421707,332.776337 142.932205,329.993500 140.929382,329.554932 
	C138.115768,328.938873 134.920883,330.064178 131.889053,330.444733 
	C132.253555,331.584503 132.292221,333.323181 133.051956,333.736511 
	C134.530853,334.541168 136.413910,334.602966 138.129593,334.972443 
	C138.369278,335.514679 138.608978,336.056946 138.848679,336.599213 
	C136.235474,338.564850 133.622284,340.530487 130.264313,343.056366 
	C129.056152,347.520966 141.198837,345.650757 136.312698,353.375092 
	C133.866684,352.722809 131.028305,352.436005 128.649094,351.237610 
	C122.979805,348.382050 122.076347,345.800568 123.507202,339.665253 
	C123.789070,338.456635 123.656761,337.029907 123.314262,335.817108 
	C121.219162,328.398438 126.580727,322.265106 134.426285,323.168915 
	C135.019073,323.237183 135.838379,323.215607 136.229797,322.870239 
	C140.988708,318.671051 144.805450,322.488312 148.135223,324.831909 
	C152.401382,327.834595 154.348694,332.734619 153.741119,337.975067 
	C153.328812,341.531189 146.896500,341.927460 143.287903,338.602753 
z"/>
<path fill="#654FCA" opacity="1.000000" stroke="none" 
	d="
M295.042145,219.949554 
	C288.877899,218.675247 282.713623,217.400925 276.183380,216.050949 
	C277.335297,213.419113 278.152679,211.551605 278.974304,209.320435 
	C279.204041,208.688812 279.429535,208.420853 280.250397,208.075638 
	C281.896515,207.055344 282.947266,206.112320 283.998016,205.169296 
	C284.165833,205.143372 284.333618,205.117462 285.091064,205.030823 
	C286.438141,204.301605 287.195557,203.633133 287.953003,202.964661 
	C287.953003,202.964661 287.984741,202.990295 288.364899,202.986420 
	C290.160614,202.328903 291.576141,201.675293 292.991699,201.021667 
	C295.929199,200.371140 298.867279,199.163559 301.804108,199.166580 
	C314.457947,199.179596 327.120514,199.353012 339.757843,199.941772 
	C342.463196,200.067825 345.076630,202.167877 347.852051,203.685760 
	C347.228302,204.008011 346.484833,204.003021 345.152405,203.679016 
	C341.906097,202.700531 339.281830,201.818588 336.586029,201.418533 
	C321.592377,199.193420 307.897644,201.312317 297.710144,213.920288 
	C296.376373,215.570953 295.910187,217.922592 295.042145,219.949554 
z"/>
<path fill="#CF59BB" opacity="1.000000" stroke="none" 
	d="
M218.641541,264.948120 
	C219.981339,266.280609 220.769363,267.931244 222.048340,268.987366 
	C224.540634,271.045319 227.234009,272.888550 229.979843,274.603455 
	C233.455460,276.774170 237.066345,278.728302 240.813934,280.888275 
	C240.813934,281.769104 240.813934,283.139587 240.931778,284.790100 
	C240.275208,285.367798 239.500793,285.665497 238.137604,285.960876 
	C237.548843,285.958557 237.066696,285.859131 236.713226,285.636719 
	C231.894196,285.250702 227.428665,285.087097 222.967926,284.520813 
	C223.175690,280.316986 221.971161,278.561798 217.661911,279.459137 
	C215.243637,279.962677 212.557159,279.178070 209.991516,278.973877 
	C210.351990,277.526459 210.712448,276.079071 210.920776,274.193665 
	C210.768631,273.755707 210.851288,273.492035 210.596573,273.161316 
	C203.549393,272.541687 196.756943,272.252747 190.036560,271.606628 
	C190.395935,269.827606 190.683228,268.405762 191.442169,266.974182 
	C195.050964,266.961212 198.192703,267.065094 201.324203,266.930756 
	C206.536804,266.707153 211.742828,266.330811 216.965027,265.806702 
	C216.978424,265.594604 216.992996,265.169861 216.992996,265.169861 
	C217.432541,265.112427 217.872101,265.054993 218.641541,264.948120 
z"/>
<path fill="#3B8DCC" opacity="1.000000" stroke="none" 
	d="
M312.983582,179.899658 
	C310.610077,179.392853 308.236572,178.886032 305.533813,178.308914 
	C305.713501,177.120056 305.894989,175.919418 306.087341,174.646896 
	C305.660156,174.456955 305.243805,174.196854 304.791351,174.091232 
	C304.315613,173.980179 303.745331,174.154541 303.319275,173.968460 
	C297.513916,171.433273 293.332275,165.798370 286.520142,165.162613 
	C286.409607,165.152328 286.294800,164.925385 286.225037,164.779037 
	C284.379303,160.905823 282.539215,157.029938 280.556305,152.855957 
	C284.103271,151.258484 287.916992,149.540894 291.848236,147.503235 
	C292.140533,147.146072 292.315338,147.108963 292.907776,147.303436 
	C293.555054,147.752060 293.811676,147.930298 294.068237,148.488098 
	C292.639313,153.442505 296.816772,155.927002 297.879211,159.502319 
	C299.187897,163.906265 301.883179,166.492691 306.188049,166.678543 
	C310.519257,166.865509 312.520386,168.839661 312.966888,172.842346 
	C313.513947,177.746094 316.125366,179.830154 321.488647,178.958557 
	C328.284912,179.013290 334.614258,179.058594 340.945129,179.330368 
	C340.946686,179.556824 340.961792,180.009476 340.512878,180.043411 
	C336.775299,180.080841 333.486633,180.084335 329.712769,180.048309 
	C323.812897,179.972427 318.398254,179.936035 312.983582,179.899658 
z"/>
<path fill="#39B0D1" opacity="1.000000" stroke="none" 
	d="
M236.902115,232.836716 
	C236.902115,232.836716 236.509003,232.946274 236.056259,232.934875 
	C235.603516,232.923477 235.112061,232.836517 235.071960,232.595688 
	C235.031845,232.354858 234.953644,231.872589 234.850983,231.787903 
	C234.473495,231.595230 234.248962,231.669128 233.632797,231.944000 
	C231.130035,231.972916 229.069199,231.982758 227.000244,231.617828 
	C224.789200,227.290878 226.114639,224.012863 228.577698,220.635330 
	C229.880402,218.848938 230.191177,216.372314 231.198105,214.329742 
	C232.938507,210.799240 232.647476,205.934601 237.759247,204.486160 
	C238.444839,204.291916 238.604935,202.243027 239.456787,201.032455 
	C242.593933,201.020508 245.282684,201.029068 247.962524,201.406158 
	C247.127502,203.519089 246.538666,205.434692 245.427963,206.973694 
	C242.772827,210.652710 240.847076,214.359833 242.233261,219.123093 
	C242.462738,219.911575 241.496750,221.024429 241.146027,222.009720 
	C240.082840,224.996506 239.050476,227.994278 237.887573,231.229111 
	C237.480072,231.925873 237.191086,232.381287 236.902115,232.836716 
z"/>
<path fill="#271D5A" opacity="1.000000" stroke="none" 
	d="
M253.579071,236.226196 
	C257.885559,234.616638 261.927429,233.203522 266.568878,231.996094 
	C266.870819,233.298111 266.601990,234.403275 266.270416,235.489243 
	C264.937592,239.854080 263.585327,244.212997 262.240234,248.574097 
	C262.698090,248.801437 263.155914,249.028778 263.613739,249.256119 
	C261.415161,250.190140 259.216583,251.124146 257.018036,252.058167 
	C248.953491,252.163574 240.888947,252.268997 232.449066,252.204956 
	C233.598373,251.184113 235.094742,250.276123 236.655487,249.497101 
	C238.257614,248.697418 240.200089,248.349365 241.508606,247.234436 
	C245.567688,243.775803 249.396347,240.046738 253.579071,236.226196 
z"/>
<path fill="#DC69B2" opacity="1.000000" stroke="none" 
	d="
M209.549286,279.013031 
	C212.557159,279.178070 215.243637,279.962677 217.661911,279.459137 
	C221.971161,278.561798 223.175690,280.316986 222.503510,284.537903 
	C206.625549,284.970856 191.216675,284.954926 175.808273,285.034088 
	C173.876816,285.044006 171.947922,285.555725 169.757599,285.887207 
	C169.320419,285.942627 169.143478,285.945801 168.966553,285.948975 
	C167.709839,284.574463 165.504089,283.263794 165.406403,281.811310 
	C165.236023,279.278564 167.516541,278.969727 169.885757,279.007233 
	C179.279236,279.156036 188.676407,279.071472 198.751007,279.251953 
	C200.286774,279.289154 201.143738,279.147705 202.000717,279.006287 
	C204.369492,279.021606 206.738281,279.036896 209.549286,279.013031 
z"/>
<path fill="#271D5A" opacity="1.000000" stroke="none" 
	d="
M247.714142,184.033234 
	C250.602127,183.236298 253.247223,182.533005 256.621002,181.879272 
	C259.957275,182.373581 260.297333,183.640350 258.754944,185.671906 
	C256.774902,188.279892 255.080536,191.157440 252.813919,193.480606 
	C250.503769,195.848343 247.648865,197.684616 244.562347,199.814407 
	C236.955719,199.935654 229.819229,199.996063 222.656174,199.886047 
	C222.629593,199.715622 222.742462,199.389618 222.742462,199.389618 
	C232.292099,198.435471 239.460114,193.409668 245.779694,185.864624 
	C246.429764,185.317780 246.675262,185.132965 246.960220,185.000595 
	C247.130569,184.709351 247.300919,184.418121 247.714142,184.033234 
z"/>
<path fill="#654FCA" opacity="1.000000" stroke="none" 
	d="
M202.035202,148.057800 
	C201.982773,149.774139 201.930344,151.490463 201.510910,153.603577 
	C198.806824,154.014938 196.469727,154.029526 193.821655,154.101852 
	C193.012070,154.773468 192.513458,155.387360 192.008820,156.001389 
	C192.002808,156.001526 192.005249,156.015350 192.005249,156.015350 
	C190.321899,157.058151 188.638535,158.100952 186.712936,159.293839 
	C186.281113,158.388916 185.830994,157.445618 185.159103,156.272217 
	C184.937347,156.042114 184.968842,156.007797 184.831757,155.828400 
	C184.490112,155.395523 184.244888,155.190765 183.958969,155.034744 
	C183.958969,155.034744 183.957672,155.084167 183.815582,154.707275 
	C179.694778,153.884216 175.715439,153.086670 171.737503,153.093597 
	C167.976288,153.100143 166.553513,151.703720 167.035019,148.103333 
	C167.035019,148.103333 167.034164,148.032074 167.459137,148.037308 
	C169.583435,147.708298 171.282745,147.374054 172.982056,147.039810 
	C176.357178,147.050888 179.732300,147.061966 183.803467,147.043854 
	C184.499527,147.014664 184.974304,147.002213 184.974304,147.002213 
	C185.146561,147.021118 185.318832,147.040009 186.083374,147.283905 
	C191.795486,147.691879 196.915344,147.874832 202.035202,148.057800 
z"/>
<path fill="#DC69B2" opacity="1.000000" stroke="none" 
	d="
M190.970520,266.983948 
	C190.683228,268.405762 190.395935,269.827606 189.571915,271.615570 
	C174.653717,272.018372 160.272247,272.055023 145.890778,272.091675 
	C145.309402,271.939606 144.728027,271.787537 144.477631,271.194458 
	C146.245895,267.838165 148.434387,266.834259 151.804474,266.891113 
	C164.856628,267.111298 177.914673,266.982697 190.970520,266.983948 
z"/>
<path fill="#492F9F" opacity="1.000000" stroke="none" 
	d="
M293.900299,227.078613 
	C297.238342,227.078613 300.576416,227.078613 303.914459,227.078613 
	C304.050751,227.437057 304.187012,227.795517 304.323303,228.153961 
	C302.168274,229.728683 300.013214,231.303391 296.914551,233.567642 
	C299.605621,233.800034 301.441101,233.958542 303.692749,234.114960 
	C299.357758,237.308228 294.606567,240.503586 289.562561,243.817352 
	C286.707642,244.577515 284.145538,245.219254 281.233582,245.440491 
	C280.634186,238.454758 283.586670,234.149094 289.672638,231.557129 
	C291.403656,230.819901 292.508362,228.612045 293.900299,227.078613 
z"/>
<path fill="#39B0D1" opacity="1.000000" stroke="none" 
	d="
M333.039673,148.066788 
	C333.656219,150.806412 334.272797,153.546021 334.581726,156.634766 
	C333.509033,156.998322 332.743958,157.012726 331.513184,157.023163 
	C325.374847,156.983902 319.702209,156.948593 314.006775,156.558365 
	C313.333527,153.491867 312.683075,150.780289 312.467224,148.057007 
	C315.599884,147.702927 318.297974,147.360580 320.996033,147.018219 
	C322.388763,147.038864 323.781464,147.059494 325.898438,147.286545 
	C328.761688,147.684219 330.900696,147.875504 333.039673,148.066788 
z"/>
<path fill="#6568CB" opacity="1.000000" stroke="none" 
	d="
M174.994400,192.955505 
	C174.173141,193.299835 173.354675,193.935654 172.530212,193.943497 
	C164.106903,194.023666 155.682510,194.022903 147.258774,193.977448 
	C146.362061,193.972610 145.467651,193.539383 144.482132,193.281311 
	C144.789597,191.138351 145.059631,189.256271 145.919495,187.208115 
	C146.678665,187.076660 146.848007,187.111267 147.368530,187.357086 
	C154.184311,187.708694 160.661865,188.153976 167.108887,187.880371 
	C171.280746,187.703354 174.097549,188.554535 174.994400,192.955505 
z"/>
<path fill="#CF59BB" opacity="1.000000" stroke="none" 
	d="
M192.952896,254.004379 
	C192.967041,255.338516 192.981201,256.672638 192.527206,258.451965 
	C188.576767,258.923401 185.091171,258.862701 181.612915,258.995331 
	C175.700745,259.220764 169.793228,259.567963 163.647522,259.917236 
	C163.411301,259.970520 162.931168,259.907104 162.931168,259.907104 
	C158.866745,258.341705 158.455154,256.720306 161.821228,253.088470 
	C162.610779,252.995865 162.803375,252.997787 162.998169,253.000000 
	C163.000381,253.000305 163.000763,253.008728 163.335266,253.251953 
	C173.430817,253.664902 183.191849,253.834641 192.952896,254.004379 
z"/>
<path fill="#6568CB" opacity="1.000000" stroke="none" 
	d="
M182.944305,167.012314 
	C182.946091,167.183746 182.947861,167.355194 182.944305,167.783417 
	C170.561691,168.016937 158.184402,167.993698 145.254471,167.704071 
	C144.553406,167.235413 144.356552,167.107788 144.111282,167.054825 
	C144.111282,167.054825 143.974823,167.097458 143.958832,166.708328 
	C143.357788,165.564453 142.772736,164.809708 142.187683,164.054962 
	C141.764450,160.975647 143.094315,159.979507 146.155304,160.138794 
	C150.776978,160.379272 155.420212,160.205704 160.507690,160.460251 
	C160.961090,160.712387 161.032959,161.130066 161.027588,161.533478 
	C161.019791,163.281952 161.017349,164.626999 160.548279,165.978302 
	C155.970581,165.984558 151.859497,165.984558 147.748398,165.984558 
	C147.753326,166.327148 147.758255,166.669724 147.763184,167.012314 
	C159.490219,167.012314 171.217270,167.012314 182.944305,167.012314 
z"/>
<path fill="#6146BC" opacity="1.000000" stroke="none" 
	d="
M202.529984,179.006439 
	C215.155685,178.895432 227.313004,178.794128 239.753448,178.952301 
	C237.935471,179.795395 235.834351,180.379013 233.004547,180.675446 
	C231.463028,180.242630 230.650024,179.968735 229.837418,179.969864 
	C202.540512,180.008087 175.243652,180.072510 147.946777,180.133118 
	C145.028763,178.595886 146.140533,176.478302 147.902191,174.187408 
	C152.833328,174.312546 156.980515,174.630325 160.660248,174.949280 
	C150.678009,174.954407 150.678009,174.954407 149.263275,178.984955 
	C156.375565,178.984955 163.195633,178.984955 170.015686,178.984955 
	C180.697647,178.995346 191.379623,179.005753 202.529984,179.006439 
z"/>
<path fill="#3CA4D0" opacity="1.000000" stroke="none" 
	d="
M124.018356,214.155975 
	C130.024475,213.773392 136.030579,213.390808 142.660309,213.240829 
	C143.515823,213.696960 143.783936,213.861435 144.088287,213.966843 
	C144.088287,213.966843 144.015518,213.982712 143.999191,214.338516 
	C142.868256,215.979477 141.857925,218.244400 140.620575,218.376083 
	C135.870758,218.881577 131.030853,218.930618 126.268631,218.569305 
	C125.411858,218.504303 124.763138,215.697113 124.018356,214.155975 
z"/>
<path fill="#6568CB" opacity="1.000000" stroke="none" 
	d="
M174.063400,240.895050 
	C174.607376,242.505661 175.151352,244.116272 174.903824,245.902527 
	C163.407349,246.049866 152.702393,246.021576 141.997421,245.993271 
	C141.358582,244.849228 140.719742,243.705170 140.321655,242.146255 
	C140.748337,241.608841 140.876221,241.441833 140.946045,241.230362 
	C140.946045,241.230362 140.996460,241.015778 141.554977,241.005936 
	C147.445847,241.008194 152.778183,241.020309 158.037537,241.381973 
	C156.983063,244.255722 158.135468,245.079636 160.519928,244.991226 
	C163.678131,244.874100 166.874969,244.458878 169.986847,244.798386 
	C173.302475,245.160110 174.195816,243.753036 174.063400,240.895050 
z"/>
<path fill="#654FCA" opacity="1.000000" stroke="none" 
	d="
M161.014908,165.972061 
	C161.017349,164.626999 161.019791,163.281952 161.378021,161.487671 
	C162.803864,160.692566 163.873901,160.346680 164.943954,160.000778 
	C169.660782,160.034317 174.377625,160.067871 179.541779,160.330261 
	C179.998535,160.753464 180.007965,160.947830 180.017395,161.142197 
	C179.157578,162.588562 178.297760,164.034927 176.765305,165.735260 
	C171.066742,165.983505 166.040833,165.977783 161.014908,165.972061 
z"/>
<path fill="#DC69B2" opacity="1.000000" stroke="none" 
	d="
M136.030258,253.181274 
	C140.701584,253.139511 145.372894,253.097748 150.769241,253.038498 
	C151.669037,253.010559 151.843826,253.000092 152.018631,252.989639 
	C152.018631,252.989639 152.494095,253.083069 152.745926,253.526581 
	C153.371780,257.501343 151.879868,259.176270 148.239212,258.997375 
	C145.628189,258.869110 143.004776,259.016785 140.387695,258.982178 
	C136.462692,258.930267 134.388443,257.438629 136.030258,253.181274 
z"/>
<path fill="#3B8DCC" opacity="1.000000" stroke="none" 
	d="
M222.365173,199.397110 
	C222.742462,199.389618 222.629593,199.715622 222.411438,199.908783 
	C221.802353,200.402237 221.411407,200.702530 221.070862,201.338623 
	C221.758896,203.124878 222.396530,204.575302 222.570251,206.025955 
	C220.139893,206.019165 218.173233,205.989471 216.207108,206.010361 
	C213.136810,206.042969 209.815628,205.422729 208.032486,208.994385 
	C205.285110,207.146469 203.155518,205.114700 206.387848,201.330719 
	C210.953384,200.502258 214.977173,199.991425 219.000961,199.480560 
	C219.996597,199.455246 220.992233,199.429932 222.365173,199.397110 
z"/>
<path fill="#A3BCDB" opacity="1.000000" stroke="none" 
	d="
M235.112061,232.836517 
	C235.112061,232.836517 235.603516,232.923477 235.852448,232.944382 
	C235.116211,233.314194 234.131439,233.966614 233.145782,233.967957 
	C203.024033,234.009018 172.902191,233.987183 142.780365,233.963898 
	C142.289536,233.963531 141.798782,233.824081 141.577179,233.374390 
	C164.521790,232.943771 187.197220,232.888275 210.351059,232.893433 
	C218.923660,232.914902 227.017868,232.875717 235.112061,232.836517 
z"/>
<path fill="#B6589A" opacity="1.000000" stroke="none" 
	d="
M146.090729,272.446167 
	C160.272247,272.055023 174.653717,272.018372 189.499832,271.972778 
	C196.756943,272.252747 203.549393,272.541687 210.152817,273.035370 
	C197.844574,273.137421 185.725449,273.015411 173.606033,272.971954 
	C172.721390,272.968781 171.834732,273.535217 170.949005,273.836823 
	C163.901459,273.897003 156.853500,274.014038 149.806793,273.961456 
	C148.631927,273.952728 147.462585,273.206207 146.090729,272.446167 
z"/>
<path fill="#4BA1BA" opacity="1.000000" stroke="none" 
	d="
M340.961792,180.009476 
	C340.961792,180.009476 340.946686,179.556824 341.404846,179.305969 
	C344.903137,179.043076 347.943237,179.031036 350.983337,179.018997 
	C354.277863,179.022293 357.635803,178.610886 360.855469,179.103439 
	C372.417419,180.872208 381.585846,170.381058 380.028320,159.304337 
	C384.047241,165.263794 380.161804,176.134567 372.617340,178.982269 
	C369.789856,180.049530 366.678925,180.365967 362.925659,180.741226 
	C355.089996,180.308319 348.025879,180.158890 340.961792,180.009476 
z"/>
<path fill="#7C50D3" opacity="1.000000" stroke="none" 
	d="
M148.158020,180.513077 
	C175.243652,180.072510 202.540512,180.008087 229.837418,179.969864 
	C230.650024,179.968735 231.463028,180.242630 232.616821,180.617554 
	C204.761627,180.862213 176.565445,180.877625 148.158020,180.513077 
z"/>
<path fill="#3F77C3" opacity="1.000000" stroke="none" 
	d="
M209.872650,232.832779 
	C187.197220,232.888275 164.521790,232.943771 141.369431,232.981506 
	C137.365540,231.952972 137.839554,229.809769 139.866241,227.240051 
	C140.593658,227.131973 140.767914,227.167496 140.942184,227.203003 
	C139.275894,231.994919 142.380585,232.026627 145.671188,232.022507 
	C164.135956,231.999374 182.600769,232.011658 201.973572,232.015564 
	C205.221298,232.016998 207.561035,232.014725 209.905869,232.217896 
	C209.910965,232.423340 209.872650,232.832779 209.872650,232.832779 
z"/>
<path fill="#3F77C3" opacity="1.000000" stroke="none" 
	d="
M218.620163,199.360779 
	C214.977173,199.991425 210.953384,200.502258 206.470840,201.021606 
	C186.377701,201.017410 166.743271,201.016800 147.108963,200.971909 
	C145.299316,200.967773 143.490326,200.681656 141.805496,200.248749 
	C164.640625,199.965591 187.351318,199.978851 210.061844,199.921234 
	C211.994202,199.916321 213.925354,199.438751 215.857056,199.180756 
	C216.651154,199.200821 217.445267,199.220901 218.620163,199.360779 
z"/>
<path fill="#B6589A" opacity="1.000000" stroke="none" 
	d="
M191.442169,266.974182 
	C177.914673,266.982697 164.856628,267.111298 151.804474,266.891113 
	C148.434387,266.834259 146.245895,267.838165 144.475189,270.885071 
	C145.214142,269.079773 146.286514,267.142822 148.053345,265.409729 
	C150.389389,265.757507 152.030884,266.025024 153.672607,266.026550 
	C174.765594,266.046051 195.858612,266.027588 216.951630,266.018738 
	C211.742828,266.330811 206.536804,266.707153 201.324203,266.930756 
	C198.192703,267.065094 195.050964,266.961212 191.442169,266.974182 
z"/>
<path fill="#A3BCDB" opacity="1.000000" stroke="none" 
	d="
M215.402954,199.116943 
	C213.925354,199.438751 211.994202,199.916321 210.061844,199.921234 
	C187.351318,199.978851 164.640625,199.965591 141.461975,200.018997 
	C140.811905,200.042267 140.629852,200.017548 140.172668,200.016602 
	C141.385315,199.698044 142.872498,199.060654 144.361008,199.057510 
	C167.890182,199.007980 191.419525,199.039871 215.402954,199.116943 
z"/>
<path fill="#4BA1BA" opacity="1.000000" stroke="none" 
	d="
M135.890564,243.843399 
	C135.771667,244.384155 135.696701,244.531967 135.612717,244.674454 
	C133.766800,247.806198 130.731491,247.618103 128.264267,246.374207 
	C127.025269,245.749527 125.822891,242.678070 126.353661,241.504395 
	C127.053452,239.956985 130.036469,237.911591 131.034134,238.352325 
	C133.027527,239.233002 134.337891,241.659714 135.890564,243.843399 
z"/>
<path fill="#060606" opacity="1.000000" stroke="none" 
	d="
M147.731354,351.498077 
	C145.549103,352.444183 143.629730,353.171906 141.710373,353.899628 
	C141.511688,353.408752 141.312988,352.917908 141.114304,352.427063 
	C142.219208,351.794952 143.324112,351.162842 144.737762,350.354126 
	C143.979935,349.107300 143.255829,347.915924 142.575607,346.796783 
	C143.412476,342.911926 147.450760,342.177734 152.567673,345.086731 
	C151.032471,347.165558 149.513367,349.222626 147.731354,351.498077 
z"/>
<path fill="#4BA1BA" opacity="1.000000" stroke="none" 
	d="
M123.642448,214.112137 
	C124.763138,215.697113 125.411858,218.504303 126.268631,218.569305 
	C131.030853,218.930618 135.870758,218.881577 140.620575,218.376083 
	C141.857925,218.244400 142.868256,215.979477 144.022354,214.309357 
	C147.026840,218.809479 146.065491,220.854370 140.650238,220.935852 
	C135.678314,221.010666 130.684174,221.179123 125.742165,220.780884 
	C124.125145,220.650574 122.384514,219.082779 121.257011,217.713928 
	C120.931427,217.318649 122.543037,215.327698 123.642448,214.112137 
z"/>
<path fill="#DC69B2" opacity="1.000000" stroke="none" 
	d="
M216.965027,265.806671 
	C195.858612,266.027588 174.765594,266.046051 153.672607,266.026550 
	C152.030884,266.025024 150.389389,265.757507 148.414963,265.379089 
	C170.743820,265.103424 193.405487,265.062256 216.530090,265.095490 
	C216.992996,265.169861 216.978424,265.594604 216.965027,265.806671 
z"/>
<path fill="#FFC9FF" opacity="1.000000" stroke="none" 
	d="
M169.119659,286.371246 
	C169.143478,285.945801 169.320419,285.942627 170.224609,285.944214 
	C192.990143,285.919037 215.028412,285.889099 237.066696,285.859131 
	C237.066696,285.859131 237.548843,285.958557 237.794968,285.947906 
	C237.416962,286.293213 236.792603,286.960663 236.168732,286.960175 
	C213.870056,286.943359 191.571411,286.864075 169.119659,286.371246 
z"/>
<path fill="#4BA1BA" opacity="1.000000" stroke="none" 
	d="
M127.030090,192.877701 
	C127.138817,187.470505 131.745087,184.945099 135.958191,187.506821 
	C138.451019,189.022583 138.458954,192.051132 135.551559,192.964600 
	C132.949692,193.782074 129.925568,193.255585 127.030090,192.877701 
z"/>
<path fill="#7C50D3" opacity="1.000000" stroke="none" 
	d="
M174.031158,240.689041 
	C174.195816,243.753036 173.302475,245.160110 169.986847,244.798386 
	C166.874969,244.458878 163.678131,244.874100 160.519928,244.991226 
	C158.135468,245.079636 156.983063,244.255722 158.487762,241.375031 
	C162.959457,240.990097 166.907913,240.961655 171.174942,240.907898 
	C172.297302,240.613953 173.101105,240.345337 173.904907,240.076721 
	C173.904907,240.076721 173.998901,240.483032 174.031158,240.689041 
z"/>
<path fill="#3F77C3" opacity="1.000000" stroke="none" 
	d="
M139.154327,206.310104 
	C153.684860,206.024780 168.329865,205.965729 182.974472,206.015732 
	C189.074509,206.036545 195.173737,206.289658 201.159058,206.684219 
	C181.011826,206.946976 160.978882,206.962662 140.945938,206.978348 
	C140.386841,206.845703 139.827744,206.713043 139.154327,206.310104 
z"/>
<path fill="#B6589A" opacity="1.000000" stroke="none" 
	d="
M193.426331,253.993469 
	C183.191849,253.834641 173.430817,253.664902 163.803833,253.247742 
	C180.975082,252.985687 198.012375,252.995132 215.049332,252.923325 
	C216.987366,252.915161 218.923508,252.451019 220.860519,252.198318 
	C221.650269,252.198517 222.440002,252.198715 223.603455,252.326904 
	C222.359833,252.952713 220.749939,253.850952 219.123932,253.881165 
	C210.718140,254.037231 202.308243,253.971161 193.426331,253.993469 
z"/>
<path fill="#A3BCDB" opacity="1.000000" stroke="none" 
	d="
M141.147400,207.372086 
	C160.978882,206.962662 181.011826,206.946976 201.510529,206.895798 
	C202.192520,207.135132 202.408768,207.409973 202.804932,207.876587 
	C182.439529,207.967514 161.894211,207.866669 141.147400,207.372086 
z"/>
<path fill="#4BA1BA" opacity="1.000000" stroke="none" 
	d="
M333.504272,148.052612 
	C330.900696,147.875504 328.761688,147.684219 326.315186,147.253220 
	C331.850372,146.695816 337.689697,146.244888 343.536682,146.096497 
	C349.877716,145.935547 356.226013,146.036362 362.570648,146.087555 
	C363.159088,146.092300 363.743744,146.562378 364.697815,146.983093 
	C359.828369,147.436493 354.594269,147.828842 349.353241,147.979828 
	C344.228790,148.127457 339.097260,148.028900 333.504272,148.052612 
z"/>
<path fill="#4BA1BA" opacity="1.000000" stroke="none" 
	d="
M132.434067,227.668823 
	C132.929764,229.167999 133.918610,230.735641 133.723801,232.138962 
	C133.618225,232.899475 131.533340,233.804993 130.276215,233.917435 
	C122.409531,234.621078 120.623772,232.743027 122.717621,225.593140 
	C125.784470,225.989502 128.951996,226.398880 131.786957,227.306702 
	C129.107803,228.061356 126.761215,228.317581 124.414619,228.573792 
	C124.307526,229.222244 124.200424,229.870697 124.093323,230.519135 
	C125.819031,230.998398 127.793709,232.218796 129.199738,231.746460 
	C130.578812,231.283173 131.379517,229.098190 132.434067,227.668823 
z"/>
<path fill="#B6589A" opacity="1.000000" stroke="none" 
	d="
M135.658157,253.101044 
	C134.388443,257.438629 136.462692,258.930267 140.387695,258.982178 
	C143.004776,259.016785 145.628189,258.869110 148.239212,258.997375 
	C151.879868,259.176270 153.371780,257.501343 152.985840,253.560364 
	C156.225250,256.086639 156.013687,259.331085 152.200531,259.958405 
	C147.413742,260.745972 142.404984,261.188354 137.614227,260.663757 
	C132.874542,260.144775 132.112671,256.732117 135.658157,253.101044 
z"/>
<path fill="#DC69B2" opacity="1.000000" stroke="none" 
	d="
M220.408432,252.133469 
	C218.923508,252.451019 216.987366,252.915161 215.049332,252.923325 
	C198.012375,252.995132 180.975082,252.985687 163.469330,253.004517 
	C163.000763,253.008728 163.000381,253.000305 163.002747,252.788879 
	C163.005096,252.577454 163.032196,252.155975 163.032196,252.155975 
	C182.006912,252.126862 200.981628,252.097748 220.408432,252.133469 
z"/>
<path fill="#4BA1BA" opacity="1.000000" stroke="none" 
	d="
M141.413010,227.144379 
	C140.767914,227.167496 140.593658,227.131973 140.156128,227.051987 
	C141.561600,226.666000 143.228683,226.037369 144.899277,226.027969 
	C159.384384,225.946320 173.870316,226.009903 188.355469,225.931488 
	C190.276321,225.921097 192.194168,225.356689 194.533020,225.028275 
	C192.868073,225.665955 190.790298,226.869461 188.697876,226.895538 
	C173.094833,227.090057 157.488876,227.051361 141.413010,227.144379 
z"/>
<path fill="#FFC9FF" opacity="1.000000" stroke="none" 
	d="
M163.084564,260.334503 
	C162.931168,259.907104 163.411301,259.970520 164.129639,259.942261 
	C182.541214,260.016052 200.234451,260.118103 217.927689,260.220154 
	C217.927689,260.220154 217.840759,260.619598 217.908264,260.812317 
	C199.729813,260.923981 181.483887,260.842957 163.084564,260.334503 
z"/>
<path fill="#4BA1BA" opacity="1.000000" stroke="none" 
	d="
M320.774353,146.646271 
	C318.297974,147.360580 315.599884,147.702927 311.996216,148.035248 
	C305.425507,148.040054 299.760345,148.054901 294.095215,148.069763 
	C293.811676,147.930298 293.555054,147.752060 293.170135,147.358307 
	C302.194153,146.879166 311.373444,146.576736 320.774353,146.646271 
z"/>
<path fill="#A3BCDB" opacity="1.000000" stroke="none" 
	d="
M161.127701,174.948105 
	C156.980515,174.630325 152.833328,174.312546 148.201004,174.027710 
	C149.225723,173.715271 150.732941,173.084869 152.245880,173.070740 
	C162.123520,172.978500 172.002426,173.019821 182.326141,173.026489 
	C178.779465,173.675461 174.787552,174.315414 169.918930,174.952225 
	C166.404053,174.948761 163.765884,174.948425 161.127701,174.948105 
z"/>
<path fill="#6146BC" opacity="1.000000" stroke="none" 
	d="
M166.682800,148.225433 
	C166.553513,151.703720 167.976288,153.100143 171.737503,153.093597 
	C175.715439,153.086670 179.694778,153.884216 183.791077,154.704102 
	C179.166107,155.034302 174.417694,155.122177 169.682648,154.910812 
	C164.816376,154.693588 164.020294,152.986359 166.682800,148.225433 
z"/>
<path fill="#A3BCDB" opacity="1.000000" stroke="none" 
	d="
M292.122131,326.003296 
	C292.124298,320.363678 292.124298,315.223236 292.124298,310.082764 
	C292.308868,310.084259 292.493469,310.085785 292.678040,310.087280 
	C292.678040,324.305817 292.678040,338.524384 292.678040,352.742920 
	C292.492004,352.747223 292.305969,352.751556 292.119934,352.755859 
	C292.119934,344.004730 292.119934,335.253571 292.122131,326.003296 
z"/>
<path fill="#B6589A" opacity="1.000000" stroke="none" 
	d="
M300.893555,335.998108 
	C300.896179,341.944122 300.896179,347.390625 300.896179,352.837097 
	C300.703583,352.836304 300.511017,352.835480 300.318420,352.834656 
	C300.318420,338.957489 300.318420,325.080353 300.318420,311.203186 
	C300.509247,311.201538 300.700073,311.199921 300.890900,311.198273 
	C300.890900,319.298370 300.890900,327.398499 300.893555,335.998108 
z"/>
<path fill="#4BA1BA" opacity="1.000000" stroke="none" 
	d="
M131.001907,199.990707 
	C133.601562,201.580353 134.978775,204.799637 132.682541,206.169266 
	C130.181046,207.661331 126.307785,206.853622 123.032547,207.048492 
	C123.117813,204.699783 123.203072,202.351074 123.681183,200.522888 
	C124.298820,205.402634 126.676231,207.577896 129.338272,205.532394 
	C130.579407,204.578690 130.488846,201.891922 131.001907,199.990707 
z"/>
<path fill="#A3BCDB" opacity="1.000000" stroke="none" 
	d="
M193.967438,220.492554 
	C193.967438,220.492554 193.821457,220.656342 193.880707,220.748184 
	C180.075485,220.818436 166.211014,220.796844 152.148544,220.379425 
	C152.122925,220.002808 152.295319,220.022034 153.195450,220.050674 
	C167.271286,220.204254 180.619354,220.348404 193.967438,220.492554 
z"/>
<path fill="#3CA4D0" opacity="1.000000" stroke="none" 
	d="
M131.000916,199.995712 
	C130.488846,201.891922 130.579407,204.578690 129.338272,205.532394 
	C126.676231,207.577896 124.298820,205.402634 124.100960,200.634598 
	C125.818398,200.174255 127.508911,200.122757 129.865021,200.046539 
	C130.530624,200.021835 131.009506,199.996078 131.009506,199.996078 
	C131.009506,199.996078 130.999939,200.000717 131.000916,199.995712 
z"/>
<path fill="#FFC9FF" opacity="1.000000" stroke="none" 
	d="
M171.417786,273.925720 
	C171.834732,273.535217 172.721390,272.968781 173.606033,272.971954 
	C185.725449,273.015411 197.844574,273.137421 210.407532,273.366089 
	C210.851288,273.492035 210.768631,273.755707 210.896378,273.808594 
	C197.978271,273.912506 184.932419,273.963593 171.417786,273.925720 
z"/>
<path fill="#6146BC" opacity="1.000000" stroke="none" 
	d="
M175.300812,192.832214 
	C174.097549,188.554535 171.280746,187.703354 167.108887,187.880371 
	C160.661865,188.153976 154.184311,187.708694 147.833511,187.295517 
	C156.622787,187.003387 165.298248,186.984009 173.973724,186.964630 
	C175.949936,188.472260 178.119980,189.924774 175.300812,192.832214 
z"/>
<path fill="#4BA1BA" opacity="1.000000" stroke="none" 
	d="
M140.004166,174.072403 
	C140.327438,176.059082 140.650711,178.045776 140.973984,180.032455 
	C138.679382,180.349182 135.971024,181.543839 134.215561,180.716553 
	C132.696014,180.000458 132.257843,176.989792 130.914551,174.062622 
	C133.928360,174.062622 135.527344,174.062622 137.282776,174.334518 
	C136.426453,175.664581 135.413696,176.722748 134.400940,177.780914 
	C135.446106,178.422226 137.071426,179.831482 137.428391,179.561813 
	C138.529282,178.730133 139.231659,177.302414 139.908585,176.011673 
	C140.181335,175.491592 139.986313,174.726166 140.004166,174.072403 
z"/>
<path fill="#4BA1BA" opacity="1.000000" stroke="none" 
	d="
M237.316437,232.920746 
	C237.191086,232.381287 237.480072,231.925873 238.267868,231.207092 
	C243.426025,228.877686 248.085388,226.811646 252.835144,224.836029 
	C252.925568,224.926453 253.106232,225.107483 253.106232,225.107483 
	C249.309708,230.326675 243.855499,232.318481 237.316437,232.920746 
z"/>
<path fill="#6146BC" opacity="1.000000" stroke="none" 
	d="
M202.497803,148.050018 
	C196.915344,147.874832 191.795486,147.691879 186.342651,147.265091 
	C186.479034,146.709763 186.948410,146.398254 188.007675,146.420563 
	C198.391388,146.884262 208.185196,147.014145 217.979019,147.144043 
	C212.972809,147.443451 207.966614,147.742859 202.497803,148.050018 
z"/>
<path fill="#7C50D3" opacity="1.000000" stroke="none" 
	d="
M248.447006,168.856445 
	C247.064758,163.968491 246.027008,158.906479 244.994141,153.453552 
	C249.670914,157.812851 251.053787,163.508453 248.447006,168.856445 
z"/>
<path fill="#A3BCDB" opacity="1.000000" stroke="none" 
	d="
M305.638123,233.885208 
	C307.487152,233.559326 309.787537,233.290756 312.931488,233.032745 
	C315.495728,232.990585 317.216400,232.937881 318.937042,232.885178 
	C324.981812,232.965256 331.026581,233.045349 337.535950,233.168030 
	C333.819763,233.472946 329.641754,233.887390 325.457642,233.962296 
	C319.003784,234.077850 312.545715,233.960861 305.638123,233.885208 
z"/>
<path fill="#6568CB" opacity="1.000000" stroke="none" 
	d="
M173.800049,239.643311 
	C173.101105,240.345337 172.297302,240.613953 170.851501,240.681473 
	C166.131058,240.341248 162.050156,240.252121 157.974823,240.050232 
	C152.956024,239.801590 147.941879,239.458969 142.925720,239.156982 
	C153.182220,239.174622 163.438705,239.192276 173.800049,239.643311 
z"/>
<path fill="#A3BCDB" opacity="1.000000" stroke="none" 
	d="
M142.174133,246.396973 
	C152.702393,246.021576 163.407349,246.049866 174.583176,246.066818 
	C173.880661,246.362244 172.707718,246.932480 171.533890,246.934280 
	C161.806305,246.949249 152.078552,246.859070 142.174133,246.396973 
z"/>
<path fill="#A3BCDB" opacity="1.000000" stroke="none" 
	d="
M340.512878,180.043411 
	C348.025879,180.158890 355.089996,180.308319 362.502075,180.645447 
	C352.250702,180.866058 341.651398,180.898941 330.593506,180.698456 
	C330.134979,180.465088 330.197937,180.087830 330.197937,180.087830 
	C333.486633,180.084335 336.775299,180.080841 340.512878,180.043411 
z"/>
<path fill="#271D5A" opacity="1.000000" stroke="none" 
	d="
M217.843216,329.275604 
	C217.843842,337.199280 217.843842,344.664673 217.843842,352.130066 
	C217.692886,352.130951 217.541946,352.131805 217.390991,352.132690 
	C217.390991,342.700897 217.390991,333.269104 217.390991,323.837311 
	C217.541519,323.832794 217.692062,323.828278 217.842590,323.823730 
	C217.842590,325.488281 217.842590,327.152802 217.843216,329.275604 
z"/>
<path fill="#6146BC" opacity="1.000000" stroke="none" 
	d="
M142.652832,239.182968 
	C147.941879,239.458969 152.956024,239.801590 157.974823,240.050232 
	C162.050156,240.252121 166.131058,240.341248 170.532928,240.706802 
	C166.907913,240.961655 162.959457,240.990097 158.560760,241.025482 
	C152.778183,241.020309 147.445847,241.008194 141.663452,240.986404 
	C141.602249,240.387466 141.991089,239.798218 142.652832,239.182968 
z"/>
<path fill="#A3BCDB" opacity="1.000000" stroke="none" 
	d="
M218.230515,147.076706 
	C208.185196,147.014145 198.391388,146.884262 188.319733,146.439362 
	C198.232437,146.123383 208.422989,146.122437 218.802429,146.511261 
	C218.821548,146.937134 218.651779,146.973267 218.230515,147.076706 
z"/>
<path fill="#4BA1BA" opacity="1.000000" stroke="none" 
	d="
M264.109894,214.098984 
	C260.670624,217.730774 257.231354,221.362564 253.449158,225.050919 
	C253.106232,225.107483 252.925568,224.926453 252.976257,224.535919 
	C256.585907,220.670242 260.144836,217.195099 263.805267,213.814789 
	C263.906738,213.909607 264.109894,214.098984 264.109894,214.098984 
z"/>
<path fill="#4BA1BA" opacity="1.000000" stroke="none" 
	d="
M329.712769,180.048309 
	C330.197937,180.087830 330.134979,180.465088 330.135071,180.656326 
	C320.751129,180.903061 311.367157,180.958557 301.521423,181.002350 
	C304.731293,180.641891 308.402893,180.293137 312.529053,179.922012 
	C318.398254,179.936035 323.812897,179.972427 329.712769,180.048309 
z"/>
<path fill="#3CA4D0" opacity="1.000000" stroke="none" 
	d="
M140.001129,174.037567 
	C139.986313,174.726166 140.181335,175.491592 139.908585,176.011673 
	C139.231659,177.302414 138.529282,178.730133 137.428391,179.561813 
	C137.071426,179.831482 135.446106,178.422226 134.400940,177.780914 
	C135.413696,176.722748 136.426453,175.664581 137.712067,174.414795 
	C138.159561,174.174026 138.334229,174.124878 138.998657,174.051514 
	C139.488419,174.027298 139.928284,174.006821 139.928284,174.006821 
	C139.928284,174.006821 139.998108,174.002716 140.001129,174.037567 
z"/>
<path fill="#A3BCDB" opacity="1.000000" stroke="none" 
	d="
M173.769897,186.582916 
	C165.298248,186.984009 156.622787,187.003387 147.482330,187.084320 
	C146.848007,187.111267 146.678665,187.076660 146.250854,187.022003 
	C147.790192,186.675797 149.586105,186.082916 151.386124,186.070175 
	C158.778763,186.017792 166.172653,186.141983 173.769897,186.582916 
z"/>
<path fill="#3F77C3" opacity="1.000000" stroke="none" 
	d="
M188.785736,212.728714 
	C186.850739,213.231659 184.737732,213.384659 182.334717,213.312439 
	C184.232376,212.851059 186.420059,212.614929 188.785736,212.728714 
z"/>
<path fill="#654FCA" opacity="1.000000" stroke="none" 
	d="
M352.364746,208.849762 
	C350.770691,207.580261 349.432953,206.152359 348.041321,204.376770 
	C349.532013,205.583160 351.076508,207.137238 352.364746,208.849762 
z"/>
<path fill="#4BA1BA" opacity="1.000000" stroke="none" 
	d="
M268.175720,209.170410 
	C267.016479,210.713715 265.857269,212.257034 264.403961,213.949661 
	C264.109894,214.098984 263.906738,213.909607 263.902405,213.491623 
	C265.179779,211.635300 266.461456,210.196945 267.851471,208.861389 
	C267.959778,208.964157 268.175720,209.170410 268.175720,209.170410 
z"/>
<path fill="#4BA1BA" opacity="1.000000" stroke="none" 
	d="
M272.130432,204.139191 
	C271.013641,205.724304 269.896881,207.309418 268.477905,209.032471 
	C268.175720,209.170410 267.959778,208.964157 267.937561,208.532776 
	C269.192017,206.647324 270.468689,205.193283 271.841827,203.839020 
	C271.938293,203.938812 272.130432,204.139191 272.130432,204.139191 
z"/>
<path fill="#6146BC" opacity="1.000000" stroke="none" 
	d="
M172.827820,146.724304 
	C171.282745,147.374054 169.583435,147.708298 167.494583,148.040970 
	C168.961227,147.495865 170.817398,146.952347 172.827820,146.724304 
z"/>
<path fill="#4BA1BA" opacity="1.000000" stroke="none" 
	d="
M280.842224,191.222717 
	C282.004333,190.832367 283.166504,190.442017 284.701111,190.054703 
	C283.944824,191.308441 282.816071,192.559143 281.307831,193.882843 
	C280.928345,193.955856 280.719879,193.799667 280.778900,193.480225 
	C280.839355,192.514771 280.840790,191.868744 280.842224,191.222717 
z"/>
<path fill="#4BA1BA" opacity="1.000000" stroke="none" 
	d="
M278.138397,197.141266 
	C277.325531,198.364319 276.512665,199.587372 275.311829,200.879929 
	C274.923828,200.949417 274.720551,200.793564 274.805420,200.464264 
	C275.867737,199.012970 276.845154,197.890961 277.899475,196.863770 
	C277.976379,196.958588 278.138397,197.141266 278.138397,197.141266 
z"/>
<path fill="#6146BC" opacity="1.000000" stroke="none" 
	d="
M283.673828,205.079010 
	C282.947266,206.112320 281.896515,207.055344 280.509521,208.003021 
	C281.232086,207.001358 282.290863,205.995041 283.673828,205.079010 
z"/>
<path fill="#6146BC" opacity="1.000000" stroke="none" 
	d="
M292.637299,201.039093 
	C291.576141,201.675293 290.160614,202.328903 288.359070,202.967102 
	C289.409698,202.319977 290.846313,201.688263 292.637299,201.039093 
z"/>
<path fill="#6146BC" opacity="1.000000" stroke="none" 
	d="
M142.138885,164.418610 
	C142.772736,164.809708 143.357788,165.564453 143.934296,166.641190 
	C143.313858,166.236206 142.701981,165.509216 142.138885,164.418610 
z"/>
<path fill="#CF59BB" opacity="1.000000" stroke="none" 
	d="
M201.879333,278.698730 
	C201.143738,279.147705 200.286774,279.289154 199.219727,279.227661 
	C199.925766,278.813568 200.841858,278.602356 201.879333,278.698730 
z"/>
<path fill="#492F9F" opacity="1.000000" stroke="none" 
	d="
M180.344955,161.090912 
	C180.007965,160.947830 179.998535,160.753464 180.006058,160.267365 
	C180.802368,159.657654 181.581726,159.339676 182.697388,159.108612 
	C182.246628,159.810211 181.459579,160.424911 180.344955,161.090912 
z"/>
<path fill="#492F9F" opacity="1.000000" stroke="none" 
	d="
M164.808853,159.702667 
	C163.873901,160.346680 162.803864,160.692566 161.383392,161.084259 
	C161.032959,161.130066 160.961090,160.712387 160.972900,160.500763 
	C162.214401,159.994263 163.444077,159.699402 164.808853,159.702667 
z"/>
<path fill="#4BA1BA" opacity="1.000000" stroke="none" 
	d="
M379.920532,157.750748 
	C379.236237,157.245728 378.642395,156.398331 378.039856,155.211151 
	C378.691101,155.717056 379.351044,156.562714 379.920532,157.750748 
z"/>
<path fill="#6146BC" opacity="1.000000" stroke="none" 
	d="
M287.629425,202.978790 
	C287.195557,203.633133 286.438141,204.301605 285.341003,204.981873 
	C285.769501,204.326752 286.537659,203.659836 287.629425,202.978790 
z"/>
<path fill="#4BA1BA" opacity="1.000000" stroke="none" 
	d="
M274.142273,202.144287 
	C273.697327,202.783829 273.252380,203.423355 272.468933,204.101044 
	C272.130432,204.139191 271.938293,203.938812 271.987366,203.584412 
	C272.626801,202.737946 273.217163,202.245895 273.889008,201.853333 
	C273.970520,201.952820 274.142273,202.144287 274.142273,202.144287 
z"/>
<path fill="#060606" opacity="1.000000" stroke="none" 
	d="
M140.427643,348.031921 
	C140.163834,348.214783 139.905273,348.225525 139.646698,348.236237 
	C139.651260,348.090332 139.655823,347.944458 139.660385,347.798553 
	C139.917877,347.818970 140.175385,347.839386 140.427643,348.031921 
z"/>
<path fill="#060606" opacity="1.000000" stroke="none" 
	d="
M182.964874,343.010712 
	C182.774475,342.706512 182.640533,342.359406 182.506607,342.012299 
	C182.681793,342.176880 182.856979,342.341431 183.080231,342.690369 
	C183.128311,342.874695 183.021332,342.967804 182.964874,343.010712 
z"/>
<path fill="#3F77C3" opacity="1.000000" stroke="none" 
	d="
M246.773285,185.132690 
	C246.675262,185.132965 246.429764,185.317780 246.103485,185.751450 
	C246.153687,185.693176 246.354721,185.465469 246.773285,185.132690 
z"/>
<path fill="#4BA1BA" opacity="1.000000" stroke="none" 
	d="
M139.887573,173.779724 
	C139.928284,174.006821 139.488419,174.027298 139.268707,174.017487 
	C139.314957,173.855988 139.580902,173.704300 139.887573,173.779724 
z"/>
<path fill="#4BA1BA" opacity="1.000000" stroke="none" 
	d="
M280.181030,195.176086 
	C280.002106,195.451508 279.823181,195.726929 279.329285,196.008453 
	C279.014374,196.014572 278.858643,195.854034 279.023376,195.685699 
	C279.403442,195.288757 279.624084,195.065308 279.932404,194.929657 
	C280.014832,195.012253 280.181061,195.176086 280.181030,195.176086 
z"/>
<path fill="#6146BC" opacity="1.000000" stroke="none" 
	d="
M144.149979,167.253784 
	C144.356552,167.107788 144.553406,167.235413 144.789520,167.593521 
	C144.567535,167.836380 144.338028,167.737503 144.149979,167.253784 
z"/>
<path fill="#7C50D3" opacity="1.000000" stroke="none" 
	d="
M184.012909,155.295197 
	C184.244888,155.190765 184.490112,155.395523 184.828262,155.849838 
	C184.663513,155.885666 184.365173,155.720657 184.012909,155.295197 
z"/>
<path fill="#4BA1BA" opacity="1.000000" stroke="none" 
	d="
M373.051056,150.679871 
	C372.833588,150.854080 372.562134,150.697464 372.164551,150.299652 
	C372.315002,150.229782 372.634583,150.326645 373.051056,150.679871 
z"/>
<path fill="#6146BC" opacity="1.000000" stroke="none" 
	d="
M233.991699,147.714615 
	C233.792480,147.899704 233.536606,147.777145 233.172516,147.419067 
	C233.388855,147.057907 233.679092,147.132385 233.991699,147.714615 
z"/>
<path fill="#6146BC" opacity="1.000000" stroke="none" 
	d="
M184.919098,146.774200 
	C184.974304,147.002213 184.499527,147.014664 184.262329,147.007935 
	C184.304703,146.849548 184.584290,146.697876 184.919098,146.774200 
z"/>
<path fill="#4BA1BA" opacity="1.000000" stroke="none" 
	d="
M285.263367,189.991455 
	C285.226715,189.819962 285.446533,189.565689 285.873718,189.167679 
	C285.893951,189.318848 285.706879,189.613754 285.263367,189.991455 
z"/>
<path fill="#4BA1BA" opacity="1.000000" stroke="none" 
	d="
M281.029358,194.038071 
	C280.971497,194.408707 280.812561,194.697113 280.417358,195.080811 
	C280.181061,195.176086 280.014832,195.012253 280.086914,194.762878 
	C280.366333,194.291595 280.553284,194.053650 280.719879,193.799667 
	C280.719879,193.799667 280.928345,193.955856 281.029358,194.038071 
z"/>
<path fill="#4BA1BA" opacity="1.000000" stroke="none" 
	d="
M279.092529,196.094574 
	C279.090454,196.516876 278.903687,196.784897 278.374390,197.059967 
	C278.138397,197.141266 277.976379,196.958588 278.075531,196.715363 
	C278.401001,196.264267 278.628998,196.058228 278.858643,195.854034 
	C278.858643,195.854034 279.014374,196.014572 279.092529,196.094574 
z"/>
<path fill="#4BA1BA" opacity="1.000000" stroke="none" 
	d="
M130.937363,199.770721 
	C131.009506,199.996078 130.530624,200.021835 130.290833,200.021332 
	C130.322449,199.862350 130.593842,199.703857 130.937363,199.770721 
z"/>
<path fill="#4BA1BA" opacity="1.000000" stroke="none" 
	d="
M275.022339,201.031281 
	C274.953613,201.397690 274.786377,201.682251 274.380737,202.055542 
	C274.142273,202.144287 273.970520,201.952820 274.050903,201.702774 
	C274.342010,201.245789 274.538422,201.026077 274.720551,200.793564 
	C274.720551,200.793564 274.923828,200.949417 275.022339,201.031281 
z"/>
<path fill="#B6589A" opacity="1.000000" stroke="none" 
	d="
M162.763336,252.119598 
	C163.032196,252.155975 163.005096,252.577454 163.000519,252.788574 
	C162.803375,252.997787 162.610779,252.995865 162.130722,252.957825 
	C162.060318,252.642197 162.277390,252.362717 162.763336,252.119598 
z"/>
<path fill="#B6589A" opacity="1.000000" stroke="none" 
	d="
M151.960312,252.737961 
	C151.843826,253.000092 151.669037,253.010559 151.232208,253.002960 
	C151.280777,252.818710 151.591385,252.652496 151.960312,252.737961 
z"/>
<path fill="#3F77C3" opacity="1.000000" stroke="none" 
	d="
M158.895782,212.782867 
	C158.935776,213.012726 158.507080,213.027130 158.292969,213.021210 
	C158.337814,212.861206 158.596802,212.707092 158.895782,212.782867 
z"/>
<path fill="#3F77C3" opacity="1.000000" stroke="none" 
	d="
M166.881088,212.799454 
	C166.915482,213.027496 166.499237,213.040039 166.291260,213.033539 
	C166.337753,212.875168 166.592224,212.723282 166.881088,212.799454 
z"/>
<path fill="#6146BC" opacity="1.000000" stroke="none" 
	d="
M140.749588,241.221848 
	C140.876221,241.441833 140.748337,241.608841 140.417969,241.799561 
	C140.163788,241.562775 140.256973,241.344650 140.749588,241.221848 
z"/>
<path fill="#3F77C3" opacity="1.000000" stroke="none" 
	d="
M195.874191,212.786987 
	C195.905716,213.012695 195.493408,213.028610 195.287598,213.021210 
	C195.335434,212.862961 195.589050,212.712112 195.874191,212.786987 
z"/>
<path fill="#4BA1BA" opacity="1.000000" stroke="none" 
	d="
M144.015610,213.695480 
	C143.783936,213.861435 143.515823,213.696960 143.122559,213.298706 
	C143.288452,213.224030 143.615692,213.324081 144.015610,213.695480 
z"/>
<path fill="#3B8DCC" opacity="1.000000" stroke="none" 
	d="
M209.900772,232.012466 
	C207.561035,232.014725 205.221298,232.016998 202.442413,232.016571 
	C202.376816,231.020767 202.948471,230.049805 203.062744,229.027679 
	C203.158447,228.171738 202.719849,227.256027 202.709656,226.165894 
	C204.140030,225.272690 205.378601,224.580353 206.617157,223.888031 
	C205.763611,222.529129 204.910049,221.170258 204.056503,219.811371 
	C205.207977,217.018829 206.359451,214.226288 208.058044,211.215363 
	C208.986435,211.010284 209.367706,211.023590 209.831848,211.256348 
	C209.914719,211.475800 210.011795,211.934799 210.152771,212.145294 
	C210.557816,212.563385 210.821884,212.770966 211.539932,212.992249 
	C214.430099,212.995926 216.884262,212.795670 219.297943,213.023804 
	C222.338440,213.311203 223.783554,212.054657 224.234711,209.121185 
	C224.658173,209.117737 224.827484,209.109909 224.989822,209.489532 
	C224.581619,211.244476 224.242188,212.633911 223.765747,213.974686 
	C222.881683,216.462585 221.272583,218.887878 221.139297,221.401489 
	C220.943298,225.098312 219.829208,227.140121 216.078674,228.100281 
	C214.806458,228.425964 214.018448,230.642975 212.621704,231.998520 
	C211.456421,232.005066 210.678604,232.008759 209.900772,232.012466 
z"/>
<path fill="#3F77C3" opacity="1.000000" stroke="none" 
	d="
M193.700119,220.149445 
	C180.619354,220.348404 167.271286,220.204254 153.453903,220.020782 
	C154.235687,219.650375 155.484833,219.040543 156.738159,219.031815 
	C167.869858,218.954361 179.002426,218.960175 190.134338,219.016876 
	C191.235138,219.022491 192.333374,219.531174 193.700119,220.149445 
z"/>
<path fill="#4BA1BA" opacity="1.000000" stroke="none" 
	d="
M209.748962,211.036896 
	C209.367706,211.023590 208.986435,211.010284 208.319839,210.989990 
	C208.033035,210.541229 208.031570,210.099411 208.031296,209.325989 
	C209.815628,205.422729 213.136810,206.042969 216.207108,206.010361 
	C218.173233,205.989471 220.139893,206.019165 222.840149,206.192581 
	C224.048233,207.273346 224.522507,208.187729 224.996780,209.102097 
	C224.827484,209.109909 224.658173,209.117737 223.866653,208.902817 
	C219.600082,208.457321 215.948654,208.031204 212.316422,208.157440 
	C211.428314,208.188324 210.603088,210.028549 209.748962,211.036896 
z"/>
<path fill="#000000" opacity="1.000000" stroke="none" 
	d="
M203.731110,219.955719 
	C204.910049,221.170258 205.763611,222.529129 206.617157,223.888031 
	C205.378601,224.580353 204.140030,225.272690 202.525513,225.960968 
	C199.777603,223.406113 201.584045,221.751450 203.731110,219.955719 
z"/>
<path fill="#000000" opacity="1.000000" stroke="none" 
	d="
M194.132645,154.044098 
	C196.469727,154.029526 198.806824,154.014938 201.577362,153.928009 
	C205.363159,154.300659 208.715515,154.745636 212.067871,155.190613 
	C212.169708,155.991089 212.271545,156.791550 212.373383,157.592026 
	C210.520706,158.404907 208.716782,159.743668 206.805191,159.920837 
	C202.864746,160.286041 198.860352,159.893951 194.894882,160.081055 
	C192.369873,160.200211 191.671188,159.133530 192.000534,156.455872 
	C192.005249,156.015350 192.002808,156.001526 192.282791,155.887680 
	C193.086075,155.197266 193.609360,154.620682 194.132645,154.044098 
z"/>
<path fill="#6568CB" opacity="1.000000" stroke="none" 
	d="
M160.660248,174.949280 
	C163.765884,174.948425 166.404053,174.948761 169.477020,174.994781 
	C169.941925,176.092346 169.972046,177.144211 170.008911,178.590515 
	C163.195633,178.984955 156.375565,178.984955 149.263275,178.984955 
	C150.678009,174.954407 150.678009,174.954407 160.660248,174.949280 
z"/>
<path fill="#6146BC" opacity="1.000000" stroke="none" 
	d="
M160.548279,165.978302 
	C166.040833,165.977783 171.066742,165.983505 176.563141,165.979187 
	C178.815155,166.151627 180.596695,166.334137 182.661255,166.764465 
	C171.217270,167.012314 159.490219,167.012314 147.763184,167.012314 
	C147.758255,166.669724 147.753326,166.327148 147.748398,165.984558 
	C151.859497,165.984558 155.970581,165.984558 160.548279,165.978302 
z"/>
<path fill="#B6589A" opacity="1.000000" stroke="none" 
	d="
M217.636398,259.922119 
	C200.234451,260.118103 182.541214,260.016052 164.365860,259.888977 
	C169.793228,259.567963 175.700745,259.220764 181.612915,258.995331 
	C185.091171,258.862701 188.576767,258.923401 192.525208,258.852112 
	C201.109283,259.079407 209.227188,259.351746 217.636398,259.922119 
z"/>
<path fill="#3DC0D3" opacity="1.000000" stroke="none" 
	d="
M274.805420,200.464264 
	C274.538422,201.026077 274.342010,201.245789 273.969391,201.603287 
	C273.217163,202.245895 272.626801,202.737946 271.890930,203.484619 
	C270.468689,205.193283 269.192017,206.647324 267.829285,208.429993 
	C266.461456,210.196945 265.179779,211.635300 263.800934,213.396790 
	C260.144836,217.195099 256.585907,220.670242 252.885834,224.445496 
	C248.085388,226.811646 243.426025,228.877686 238.386383,230.965744 
	C239.050476,227.994278 240.082840,224.996506 241.146027,222.009720 
	C241.496750,221.024429 242.462738,219.911575 242.233261,219.123093 
	C240.847076,214.359833 242.772827,210.652710 245.427963,206.973694 
	C246.538666,205.434692 247.127502,203.519089 247.966370,201.383606 
	C247.979126,200.992508 248.003510,200.955078 248.404205,200.978821 
	C250.543732,200.646912 252.282562,200.291260 254.266708,199.812775 
	C255.032715,199.516769 255.553391,199.343597 256.438538,199.245285 
	C257.546143,199.327332 258.289276,199.334518 259.148438,199.415314 
	C259.555054,199.558350 259.796570,199.473953 260.374847,199.157684 
	C266.860931,196.413757 272.961182,193.747849 279.061432,191.081955 
	C279.458282,191.110306 279.855103,191.138657 280.547089,191.194855 
	C280.840790,191.868744 280.839355,192.514771 280.778900,193.480225 
	C280.553284,194.053650 280.366333,194.291595 280.004456,194.680267 
	C279.624084,195.065308 279.403442,195.288757 279.023376,195.685699 
	C278.628998,196.058228 278.401001,196.264267 277.998627,196.620544 
	C276.845154,197.890961 275.867737,199.012970 274.805420,200.464264 
z"/>
<path fill="#23408E" opacity="1.000000" stroke="none" 
	d="
M279.056335,190.676117 
	C272.961182,193.747849 266.860931,196.413757 260.131317,199.144165 
	C259.501953,199.208679 259.032410,199.341705 259.032410,199.341705 
	C258.289276,199.334518 257.546143,199.327332 256.474518,198.873474 
	C258.831848,192.443848 261.051788,186.231049 266.485931,181.876740 
	C267.855621,180.779221 268.313873,178.544205 269.190979,176.831909 
	C276.365509,174.090942 283.712677,173.393768 293.082916,174.763550 
	C288.468689,179.135605 284.789368,182.448853 281.342926,185.988846 
	C280.257904,187.103348 279.797546,188.825989 279.056335,190.676117 
z"/>
<path fill="#2A1D6D" opacity="1.000000" stroke="none" 
	d="
M268.803467,176.930420 
	C268.313873,178.544205 267.855621,180.779221 266.485931,181.876740 
	C261.051788,186.231049 258.831848,192.443848 256.110046,198.798615 
	C255.553391,199.343597 255.032715,199.516769 253.837708,199.746094 
	C251.427261,199.905975 249.691177,200.009705 247.591782,200.046646 
	C246.496490,199.904449 245.764481,199.829010 245.032486,199.753586 
	C247.648865,197.684616 250.503769,195.848343 252.813919,193.480606 
	C255.080536,191.157440 256.774902,188.279892 258.754944,185.671906 
	C260.297333,183.640350 259.957275,182.373581 256.968231,181.864700 
	C260.529846,180.210022 264.472900,178.619476 268.803467,176.930420 
z"/>
<path fill="#39B0D1" opacity="1.000000" stroke="none" 
	d="
M351.047302,178.662323 
	C347.943237,179.031036 344.903137,179.043076 341.403320,179.079514 
	C334.614258,179.058594 328.284912,179.013290 321.489258,178.565277 
	C321.691376,172.466217 322.359833,166.769867 323.479492,161.058380 
	C326.956238,161.028366 329.981781,161.013474 333.475342,161.001617 
	C338.906067,160.998535 343.870850,160.905334 348.830811,161.019577 
	C351.717773,161.086090 353.272644,160.098572 352.980011,157.023682 
	C356.525238,157.742218 357.619629,160.178589 356.633911,163.265762 
	C355.010986,168.348648 352.973816,173.299286 351.047302,178.662323 
z"/>
<path fill="#3CA4D0" opacity="1.000000" stroke="none" 
	d="
M352.514160,157.018463 
	C353.272644,160.098572 351.717773,161.086090 348.830811,161.019577 
	C343.870850,160.905334 338.906067,160.998535 333.421936,160.662689 
	C332.593323,159.222855 332.286102,158.124985 331.978882,157.027115 
	C332.743958,157.012726 333.509033,156.998322 334.657562,156.969666 
	C340.710114,156.974686 346.379211,156.993973 352.514160,157.018463 
z"/>
<path fill="#7C50D3" opacity="1.000000" stroke="none" 
	d="
M318.874756,232.491898 
	C317.216400,232.937881 315.495728,232.990585 313.341125,232.991364 
	C313.477600,231.425125 314.048035,229.910812 314.372467,229.049561 
	C313.080811,226.585449 312.205963,224.410065 310.873993,222.564667 
	C310.070312,221.451187 308.609863,220.244385 307.351288,220.132965 
	C303.581207,219.799149 299.765259,219.983658 295.504669,219.957703 
	C295.910187,217.922592 296.376373,215.570953 297.710144,213.920288 
	C307.897644,201.312317 321.592377,199.193420 336.586029,201.418533 
	C339.281830,201.818588 341.906097,202.700531 344.780640,203.670319 
	C341.519348,212.325485 334.062744,215.874191 326.355469,218.562744 
	C317.520294,221.644730 316.567596,222.725128 318.874756,232.491898 
M318.606750,209.981781 
	C317.281677,209.994110 315.889679,209.758575 314.651611,210.093048 
	C313.556976,210.388763 312.633911,211.319397 311.635071,211.969727 
	C312.615326,212.637009 313.520111,213.659836 314.593689,213.887756 
	C316.181183,214.224838 317.924774,214.219681 319.536469,213.957748 
	C321.942017,213.566833 324.290588,212.825531 326.663422,212.233276 
	C324.283875,211.483047 321.904297,210.732819 318.606750,209.981781 
z"/>
<path fill="#2A1D6D" opacity="1.000000" stroke="none" 
	d="
M293.443542,227.073990 
	C292.508362,228.612045 291.403656,230.819901 289.672638,231.557129 
	C283.586670,234.149094 280.634186,238.454758 280.877991,245.433456 
	C273.793396,250.047302 266.108765,252.046219 257.462524,252.111938 
	C259.216583,251.124146 261.415161,250.190140 263.613739,249.256119 
	C263.155914,249.028778 262.698090,248.801437 262.240234,248.574097 
	C263.585327,244.212997 264.937592,239.854080 266.270416,235.489243 
	C266.601990,234.403275 266.870819,233.298111 266.928589,231.940399 
	C274.984314,227.459045 283.842285,226.446899 293.443542,227.073990 
z"/>
<path fill="#B6589A" opacity="1.000000" stroke="none" 
	d="
M236.713226,285.636749 
	C215.028412,285.889099 192.990143,285.919037 170.484848,285.891968 
	C171.947922,285.555725 173.876816,285.044006 175.808273,285.034088 
	C191.216675,284.954926 206.625549,284.970856 222.498703,284.940552 
	C227.428665,285.087097 231.894196,285.250702 236.713226,285.636749 
z"/>
<path fill="#3CA4D0" opacity="1.000000" stroke="none" 
	d="
M323.028259,161.073517 
	C322.359833,166.769867 321.691376,172.466217 321.022278,178.555847 
	C316.125366,179.830154 313.513947,177.746094 312.966888,172.842346 
	C312.520386,168.839661 310.519257,166.865509 306.188049,166.678543 
	C301.883179,166.492691 299.187897,163.906265 297.879211,159.502319 
	C296.816772,155.927002 292.639313,153.442505 294.068237,148.488098 
	C299.760345,148.054901 305.425507,148.040054 311.561646,148.046967 
	C312.683075,150.780289 313.333527,153.491867 313.628387,156.599548 
	C312.309692,157.861984 311.346588,158.728317 310.383484,159.594650 
	C311.491486,160.067657 312.577301,160.874008 313.711792,160.949600 
	C316.806274,161.155823 319.921356,161.053574 323.028259,161.073517 
z"/>
<path fill="#3CA4D0" opacity="1.000000" stroke="none" 
	d="
M224.989822,209.489532 
	C224.522507,208.187729 224.048233,207.273346 223.304062,206.192352 
	C222.396530,204.575302 221.758896,203.124878 221.536346,201.337585 
	C227.637070,201.018127 233.322739,201.035553 239.008392,201.052963 
	C238.604935,202.243027 238.444839,204.291916 237.759247,204.486160 
	C232.647476,205.934601 232.938507,210.799240 231.198105,214.329742 
	C230.191177,216.372314 229.880402,218.848938 228.577698,220.635330 
	C226.114639,224.012863 224.789200,227.290878 226.534698,231.624176 
	C221.721237,232.002075 217.365189,231.998871 213.009155,231.995682 
	C214.018448,230.642975 214.806458,228.425964 216.078674,228.100281 
	C219.829208,227.140121 220.943298,225.098312 221.139297,221.401489 
	C221.272583,218.887878 222.881683,216.462585 223.765747,213.974686 
	C224.242188,212.633911 224.581619,211.244476 224.989822,209.489532 
z"/>
<path fill="#3F77C3" opacity="1.000000" stroke="none" 
	d="
M239.456787,201.032455 
	C233.322739,201.035553 227.637070,201.018127 221.485931,201.001770 
	C221.411407,200.702530 221.802353,200.402237 222.438019,200.079224 
	C229.819229,199.996063 236.955719,199.935654 244.562347,199.814407 
	C245.764481,199.829010 246.496490,199.904449 247.603973,200.257050 
	C247.979446,200.534210 248.003510,200.955078 248.003510,200.955078 
	C248.003510,200.955078 247.979126,200.992508 247.975281,201.015060 
	C245.282684,201.029068 242.593933,201.020508 239.456787,201.032455 
z"/>
<path fill="#4BA1BA" opacity="1.000000" stroke="none" 
	d="
M212.621704,231.998520 
	C217.365189,231.998871 221.721237,232.002075 226.542816,231.998932 
	C229.069199,231.982758 231.130035,231.972916 233.852493,231.939514 
	C234.514130,231.915939 234.953644,231.872589 234.953644,231.872589 
	C234.953644,231.872589 235.031845,232.354858 235.071960,232.595688 
	C227.017868,232.875717 218.923660,232.914902 210.351059,232.893433 
	C209.872650,232.832779 209.910965,232.423340 209.905869,232.217896 
	C210.678604,232.008759 211.456421,232.005066 212.621704,231.998520 
z"/>
<path fill="#3DC0D3" opacity="1.000000" stroke="none" 
	d="
M234.850983,231.787903 
	C234.953644,231.872589 234.514130,231.915939 234.294434,231.920441 
	C234.248962,231.669128 234.473495,231.595230 234.850983,231.787903 
z"/>
<path fill="#7C50D3" opacity="1.000000" stroke="none" 
	d="
M193.821655,154.101837 
	C193.609360,154.620682 193.086075,155.197266 192.288818,155.887543 
	C192.513458,155.387360 193.012070,154.773468 193.821655,154.101837 
z"/>
<path fill="#3B8DCC" opacity="1.000000" stroke="none" 
	d="
M323.479492,161.058395 
	C319.921356,161.053574 316.806274,161.155823 313.711792,160.949600 
	C312.577301,160.874008 311.491486,160.067657 310.383484,159.594650 
	C311.346588,158.728317 312.309692,157.861984 313.651184,156.954468 
	C319.702209,156.948593 325.374847,156.983902 331.513184,157.023163 
	C332.286102,158.124985 332.593323,159.222855 332.953918,160.659653 
	C329.981781,161.013474 326.956238,161.028366 323.479492,161.058395 
z"/>
<path fill="#39B0D1" opacity="1.000000" stroke="none" 
	d="
M132.400360,227.669952 
	C131.379517,229.098190 130.578812,231.283173 129.199738,231.746460 
	C127.793709,232.218796 125.819031,230.998398 124.093323,230.519135 
	C124.200424,229.870697 124.307526,229.222244 124.414619,228.573792 
	C126.761215,228.317581 129.107803,228.061356 131.915771,227.704514 
	C132.377151,227.603897 132.366638,227.671066 132.400360,227.669952 
z"/>
<path fill="#000000" opacity="1.000000" stroke="none" 
	d="
M209.831833,211.256348 
	C210.603088,210.028549 211.428314,208.188324 212.316422,208.157440 
	C215.948654,208.031204 219.600082,208.457321 223.612488,208.898422 
	C223.783554,212.054657 222.338440,213.311203 219.297943,213.023804 
	C216.884262,212.795670 214.430099,212.995926 211.454163,212.736145 
	C210.613541,212.289169 210.312668,212.111984 210.011795,211.934784 
	C210.011795,211.934799 209.914719,211.475800 209.831833,211.256348 
z"/>
<path fill="#4BA1BA" opacity="1.000000" stroke="none" 
	d="
M210.152771,212.145294 
	C210.312668,212.111984 210.613541,212.289169 211.000183,212.722443 
	C210.821884,212.770966 210.557816,212.563385 210.152771,212.145294 
z"/>
<path fill="#3CA4D0" opacity="1.000000" stroke="none" 
	d="
M248.404205,200.978821 
	C248.003510,200.955078 247.979446,200.534210 247.967255,200.323822 
	C249.691177,200.009705 251.427261,199.905975 253.592377,199.868927 
	C252.282562,200.291260 250.543732,200.646912 248.404205,200.978821 
z"/>
<path fill="#3CA4D0" opacity="1.000000" stroke="none" 
	d="
M259.148438,199.415314 
	C259.032410,199.341705 259.501953,199.208679 259.745483,199.222198 
	C259.796570,199.473953 259.555054,199.558350 259.148438,199.415314 
z"/>
<path fill="#6146BC" opacity="1.000000" stroke="none" 
	d="
M319.065735,209.982178 
	C321.904297,210.732819 324.283875,211.483047 326.663422,212.233276 
	C324.290588,212.825531 321.942017,213.566833 319.536469,213.957748 
	C317.924774,214.219681 316.181183,214.224838 314.593689,213.887756 
	C313.520111,213.659836 312.615326,212.637009 311.635071,211.969727 
	C312.633911,211.319397 313.556976,210.388763 314.651611,210.093048 
	C315.889679,209.758575 317.281677,209.994110 319.065735,209.982178 
z"/>
</svg>